<svg width="312" height="81" viewBox="0 0 312 81" fill="none" xmlns="http://www.w3.org/2000/svg">
<path d="M8.44175 16.2L11.5778 7.212L9.11375 0.352H11.1578L13.6218 7.212L16.8698 16.2L22.3578 0.352H24.4018L17.9058 19H15.8338L12.6138 10.068L9.50575 19H7.40575L0.71375 0.352H2.75775L8.44175 16.2ZM26.7811 1.108C27.1171 1.108 27.4064 1.22933 27.6491 1.472C27.8918 1.71467 28.0131 2.004 28.0131 2.34C28.0131 2.69467 27.8918 2.99333 27.6491 3.236C27.4064 3.47867 27.1171 3.6 26.7811 3.6C26.4264 3.6 26.1278 3.47867 25.8851 3.236C25.6424 2.99333 25.5211 2.69467 25.5211 2.34C25.5211 2.004 25.6424 1.71467 25.8851 1.472C26.1278 1.22933 26.4264 1.108 26.7811 1.108ZM27.7331 5V19H25.8011V5H27.7331ZM37.1258 6.904H34.8018V19H32.8698V6.904H30.5458V5H32.8698V0.379999H34.8018V5H37.1258V6.904ZM45.2298 4.888C46.2378 4.888 47.1618 5.14 48.0018 5.644C48.8605 6.12933 49.5325 6.80133 50.0178 7.66C50.5218 8.5 50.7738 9.424 50.7738 10.432V19H48.8418V10.432C48.8418 9.77867 48.6738 9.172 48.3378 8.612C48.0205 8.052 47.5818 7.61333 47.0218 7.296C46.4805 6.96 45.8831 6.792 45.2298 6.792C44.5765 6.792 43.9698 6.96 43.4098 7.296C42.8498 7.61333 42.4018 8.052 42.0658 8.612C41.7485 9.172 41.5898 9.77867 41.5898 10.432V19H39.6578V0.323998H41.5898V6.456C42.0378 5.93333 42.5698 5.54133 43.1858 5.28C43.8205 5.01867 44.5018 4.888 45.2298 4.888ZM75.2253 19.14C73.5266 19.14 71.9679 18.72 70.5493 17.88C69.1306 17.04 68.0013 15.9107 67.1613 14.492C66.3213 13.0733 65.9013 11.5147 65.9013 9.816C65.9013 8.11733 66.3213 6.55867 67.1613 5.14C68.0013 3.70267 69.1306 2.564 70.5493 1.724C71.9866 0.883998 73.5453 0.463998 75.2253 0.463998C76.9053 0.463998 78.4639 0.883998 79.9013 1.724C81.3386 2.564 82.4773 3.70267 83.3173 5.14C84.1573 6.57733 84.5773 8.136 84.5773 9.816C84.5773 11.496 84.1573 13.0547 83.3173 14.492C82.4773 15.9107 81.3386 17.04 79.9013 17.88C78.4826 18.72 76.9239 19.14 75.2253 19.14ZM75.2253 17.236C76.5693 17.236 77.8106 16.9093 78.9493 16.256C80.0879 15.584 80.9839 14.6787 81.6373 13.54C82.3093 12.4013 82.6453 11.16 82.6453 9.816C82.6453 8.472 82.3093 7.23067 81.6373 6.092C80.9839 4.95333 80.0879 4.05733 78.9493 3.404C77.8106 2.732 76.5693 2.396 75.2253 2.396C73.8813 2.396 72.6399 2.732 71.5013 3.404C70.3626 4.05733 69.4573 4.95333 68.7853 6.092C68.1319 7.23067 67.8053 8.472 67.8053 9.816C67.8053 11.16 68.1319 12.4013 68.7853 13.54C69.4573 14.6787 70.3626 15.584 71.5013 16.256C72.6399 16.9093 73.8813 17.236 75.2253 17.236ZM92.3912 19.112C91.3832 19.112 90.4499 18.8693 89.5912 18.384C88.7512 17.88 88.0792 17.208 87.5752 16.368C87.0712 15.5093 86.8192 14.576 86.8192 13.568V5H88.7512V13.568C88.7512 14.2213 88.9099 14.828 89.2272 15.388C89.5632 15.948 90.0112 16.396 90.5712 16.732C91.1312 17.0493 91.7379 17.208 92.3912 17.208C93.0446 17.208 93.6512 17.0493 94.2112 16.732C94.7712 16.396 95.2099 15.948 95.5272 15.388C95.8632 14.828 96.0312 14.2213 96.0312 13.568V5H97.9352V18.86H96.0312V17.516C95.5646 18.0387 95.0139 18.44 94.3792 18.72C93.7632 18.9813 93.1006 19.112 92.3912 19.112ZM107.156 7.072C106.726 6.88533 106.297 6.792 105.868 6.792C104.99 6.792 104.234 7.10933 103.6 7.744C102.965 8.37867 102.648 9.13467 102.648 10.012V19H100.744V10.012C100.744 9.004 101.005 8.08933 101.528 7.268C102.069 6.428 102.769 5.80267 103.628 5.392L103.684 5.364C104.374 5.04667 105.102 4.888 105.868 4.888C107.062 4.888 108.126 5.252 109.06 5.98L107.156 7.072ZM124.065 19L123.953 18.16C123.953 18.1413 123.944 18.0293 123.925 17.824C123.907 17.6187 123.897 17.3107 123.897 16.9C123.897 16.004 123.972 15.2293 124.121 14.576C124.383 13.2693 124.868 12.2053 125.577 11.384C126.305 10.5627 127.22 10.0213 128.321 9.76C129.348 9.49867 130.253 9.07867 131.037 8.5C131.84 7.92133 132.241 7.09067 132.241 6.008C132.241 5.336 132.073 4.72 131.737 4.16C131.401 3.58133 130.953 3.124 130.393 2.788C129.833 2.452 129.217 2.284 128.545 2.284H124.569V0.379999H128.545C129.572 0.379999 130.515 0.631999 131.373 1.136C132.232 1.64 132.913 2.32133 133.417 3.18C133.921 4.03867 134.173 4.98133 134.173 6.008C134.173 7.50133 133.604 8.76133 132.465 9.788C131.551 10.628 130.319 11.2347 128.769 11.608C127.313 11.9813 126.389 13.0827 125.997 14.912C125.904 15.3973 125.857 15.864 125.857 16.312C125.857 16.76 125.857 17.0213 125.857 17.096H133.221V19H124.065ZM145.801 12.196H148.293V14.1H145.801V19.028H143.925V14.1H136.421L142.161 0.407999H144.233L139.221 12.196H143.925V9.256H145.801V12.196ZM162.71 0.352L152.686 19H150.53L160.554 0.352H162.71ZM172.024 2.312H164.94V0.379999H174.404L170.372 19H168.412L172.024 2.312ZM196.606 19.14C195.337 19.14 194.152 18.8227 193.05 18.188C191.968 17.5533 191.109 16.6947 190.474 15.612C189.84 14.5107 189.522 13.3253 189.522 12.056C189.522 10.768 189.84 9.58267 190.474 8.5C191.109 7.39867 191.968 6.53067 193.05 5.896C194.152 5.24267 195.337 4.916 196.606 4.916C197.894 4.916 199.08 5.24267 200.162 5.896C201.264 6.53067 202.132 7.39867 202.766 8.5C203.42 9.58267 203.746 10.768 203.746 12.056C203.746 13.3253 203.42 14.5107 202.766 15.612C202.132 16.6947 201.264 17.5533 200.162 18.188C199.08 18.8227 197.894 19.14 196.606 19.14ZM196.606 17.264C197.558 17.264 198.426 17.0307 199.21 16.564C200.013 16.0973 200.648 15.4627 201.114 14.66C201.581 13.8573 201.814 12.9893 201.814 12.056C201.814 11.104 201.581 10.2267 201.114 9.424C200.648 8.62133 200.013 7.98667 199.21 7.52C198.426 7.05333 197.558 6.82 196.606 6.82C195.673 6.82 194.805 7.05333 194.002 7.52C193.218 7.98667 192.593 8.62133 192.126 9.424C191.66 10.2267 191.426 11.104 191.426 12.056C191.426 12.9893 191.66 13.8573 192.126 14.66C192.593 15.4627 193.218 16.0973 194.002 16.564C194.805 17.0307 195.673 17.264 196.606 17.264ZM206.263 24.964V5.364H208.167V7.688C208.821 6.77333 209.586 6.092 210.463 5.644C211.341 5.17733 212.302 4.944 213.347 4.944C214.617 4.944 215.793 5.26133 216.875 5.896C217.958 6.53067 218.817 7.38933 219.451 8.472C220.086 9.55467 220.403 10.7307 220.403 12C220.403 13.2693 220.086 14.4453 219.451 15.528C218.817 16.6107 217.958 17.4693 216.875 18.104C215.793 18.7387 214.617 19.056 213.347 19.056C212.022 19.056 210.93 18.7853 210.071 18.244C209.213 17.684 208.578 17.0867 208.167 16.452V24.964H206.263ZM213.347 6.876C212.414 6.876 211.555 7.10933 210.771 7.576C209.987 8.024 209.362 8.64 208.895 9.424C208.429 10.208 208.195 11.0667 208.195 12C208.195 12.9333 208.429 13.792 208.895 14.576C209.362 15.36 209.987 15.9853 210.771 16.452C211.555 16.9187 212.414 17.152 213.347 17.152C214.281 17.152 215.139 16.9187 215.923 16.452C216.707 15.9853 217.323 15.36 217.771 14.576C218.238 13.792 218.471 12.9333 218.471 12C218.471 11.0667 218.238 10.208 217.771 9.424C217.323 8.64 216.707 8.024 215.923 7.576C215.139 7.10933 214.281 6.876 213.347 6.876ZM224.652 13.036C224.876 14.2307 225.464 15.2293 226.416 16.032C227.368 16.816 228.46 17.208 229.692 17.208C230.606 17.208 231.446 16.9933 232.212 16.564C232.977 16.1347 233.593 15.5467 234.06 14.8L235.712 15.752C235.077 16.7787 234.228 17.6 233.164 18.216C232.1 18.832 230.942 19.14 229.692 19.14C228.422 19.14 227.246 18.8227 226.164 18.188C225.081 17.5533 224.222 16.6947 223.588 15.612C222.953 14.5293 222.636 13.3533 222.636 12.084C222.636 10.796 222.953 9.62 223.588 8.556C224.222 7.47333 225.081 6.61467 226.164 5.98C227.246 5.34533 228.422 5.028 229.692 5.028C230.961 5.028 232.137 5.34533 233.22 5.98C234.302 6.61467 235.161 7.47333 235.796 8.556C236.43 9.62 236.748 10.796 236.748 12.084C236.748 12.308 236.729 12.6253 236.692 13.036H224.652ZM229.692 6.932C228.87 6.932 228.068 7.128 227.284 7.52C226.5 7.89333 225.865 8.416 225.38 9.088C224.894 9.74133 224.652 10.4507 224.652 11.216H234.732C234.732 10.4507 234.489 9.74133 234.004 9.088C233.518 8.416 232.884 7.89333 232.1 7.52C231.334 7.128 230.532 6.932 229.692 6.932ZM245.679 7.072C245.25 6.88533 244.821 6.792 244.391 6.792C243.514 6.792 242.758 7.10933 242.123 7.744C241.489 8.37867 241.171 9.13467 241.171 10.012V19H239.267V10.012C239.267 9.004 239.529 8.08933 240.051 7.268C240.593 6.428 241.293 5.80267 242.151 5.392L242.207 5.364C242.898 5.04667 243.626 4.888 244.391 4.888C245.586 4.888 246.65 5.252 247.583 5.98L245.679 7.072ZM261.44 5.364V19H259.508V16.424C258.22 18.2347 256.502 19.14 254.356 19.14C253.068 19.14 251.882 18.832 250.8 18.216C249.717 17.5813 248.858 16.7227 248.224 15.64C247.608 14.5573 247.3 13.3813 247.3 12.112C247.3 10.824 247.608 9.63867 248.224 8.556C248.858 7.47333 249.717 6.624 250.8 6.008C251.882 5.37333 253.068 5.056 254.356 5.056C255.681 5.056 256.764 5.336 257.604 5.896C258.462 6.43733 259.097 7.02533 259.508 7.66V5.364H261.44ZM254.356 17.236C255.289 17.236 256.148 17.012 256.932 16.564C257.716 16.0973 258.332 15.472 258.78 14.688C259.246 13.904 259.48 13.0453 259.48 12.112C259.48 11.1787 259.246 10.32 258.78 9.536C258.332 8.73333 257.716 8.108 256.932 7.66C256.148 7.19333 255.289 6.96 254.356 6.96C253.422 6.96 252.554 7.19333 251.752 7.66C250.968 8.108 250.342 8.73333 249.876 9.536C249.428 10.32 249.204 11.1787 249.204 12.112C249.204 13.0453 249.428 13.904 249.876 14.688C250.342 15.472 250.968 16.0973 251.752 16.564C252.554 17.012 253.422 17.236 254.356 17.236ZM270.532 6.904H268.208V19H266.276V6.904H263.952V5H266.276V0.379999H268.208V5H270.532V6.904ZM274.324 1.108C274.66 1.108 274.949 1.22933 275.192 1.472C275.435 1.71467 275.556 2.004 275.556 2.34C275.556 2.69467 275.435 2.99333 275.192 3.236C274.949 3.47867 274.66 3.6 274.324 3.6C273.969 3.6 273.671 3.47867 273.428 3.236C273.185 2.99333 273.064 2.69467 273.064 2.34C273.064 2.004 273.185 1.71467 273.428 1.472C273.671 1.22933 273.969 1.108 274.324 1.108ZM275.276 5V19H273.344V5H275.276ZM284.325 19.14C283.056 19.14 281.87 18.8227 280.769 18.188C279.686 17.5533 278.828 16.6947 278.193 15.612C277.558 14.5107 277.241 13.3253 277.241 12.056C277.241 10.768 277.558 9.58267 278.193 8.5C278.828 7.39867 279.686 6.53067 280.769 5.896C281.87 5.24267 283.056 4.916 284.325 4.916C285.613 4.916 286.798 5.24267 287.881 5.896C288.982 6.53067 289.85 7.39867 290.485 8.5C291.138 9.58267 291.465 10.768 291.465 12.056C291.465 13.3253 291.138 14.5107 290.485 15.612C289.85 16.6947 288.982 17.5533 287.881 18.188C286.798 18.8227 285.613 19.14 284.325 19.14ZM284.325 17.264C285.277 17.264 286.145 17.0307 286.929 16.564C287.732 16.0973 288.366 15.4627 288.833 14.66C289.3 13.8573 289.533 12.9893 289.533 12.056C289.533 11.104 289.3 10.2267 288.833 9.424C288.366 8.62133 287.732 7.98667 286.929 7.52C286.145 7.05333 285.277 6.82 284.325 6.82C283.392 6.82 282.524 7.05333 281.721 7.52C280.937 7.98667 280.312 8.62133 279.845 9.424C279.378 10.2267 279.145 11.104 279.145 12.056C279.145 12.9893 279.378 13.8573 279.845 14.66C280.312 15.4627 280.937 16.0973 281.721 16.564C282.524 17.0307 283.392 17.264 284.325 17.264ZM299.526 5C300.534 5 301.458 5.252 302.298 5.756C303.157 6.24133 303.838 6.91333 304.342 7.772C304.846 8.612 305.098 9.536 305.098 10.544V19H303.166V10.544C303.166 9.89067 302.998 9.29333 302.662 8.752C302.345 8.192 301.906 7.75333 301.346 7.436C300.786 7.1 300.179 6.932 299.526 6.932C298.873 6.932 298.266 7.1 297.706 7.436C297.146 7.75333 296.698 8.192 296.362 8.752C296.045 9.29333 295.886 9.89067 295.886 10.544V19H293.982V5.364H295.886V6.596C296.353 6.07333 296.894 5.68133 297.51 5.42C298.145 5.14 298.817 5 299.526 5ZM311.015 16.004L309.083 21.856H307.347L308.999 16.004H311.015ZM31.5328 33.364V45.936C31.5328 47.2053 31.2154 48.3813 30.5808 49.464C29.9461 50.5467 29.0874 51.396 28.0048 52.012C26.9221 52.6467 25.7461 52.964 24.4768 52.964C23.3754 52.964 22.3394 52.7307 21.3688 52.264C20.4168 51.7973 19.6141 51.1533 18.9608 50.332L20.6688 49.324C21.1354 49.8653 21.6954 50.2853 22.3488 50.584C23.0208 50.9013 23.7301 51.06 24.4768 51.06C25.4101 51.06 26.2688 50.8267 27.0528 50.36C27.8368 49.912 28.4528 49.296 28.9008 48.512C29.3674 47.728 29.6008 46.8693 29.6008 45.936V44.368C28.3128 46.1787 26.5954 47.084 24.4488 47.084C23.1981 47.084 22.0314 46.748 20.9488 46.076C19.8661 45.404 19.0074 44.5173 18.3728 43.416C17.7381 42.296 17.4208 41.1107 17.4208 39.86C17.4208 38.6093 17.7381 37.4613 18.3728 36.416C19.0074 35.3707 19.8568 34.54 20.9208 33.924C22.0034 33.308 23.1794 33 24.4488 33C25.7554 33 26.8381 33.28 27.6968 33.84C28.5554 34.3813 29.1901 34.9693 29.6008 35.604V33.364H31.5328ZM24.4488 45.18C25.3821 45.18 26.2408 44.956 27.0248 44.508C27.8088 44.0413 28.4248 43.416 28.8728 42.632C29.3394 41.848 29.5728 40.9893 29.5728 40.056C29.5728 39.1227 29.3394 38.264 28.8728 37.48C28.4248 36.696 27.8088 36.08 27.0248 35.632C26.2408 35.1653 25.3821 34.932 24.4488 34.932C23.5154 34.932 22.6568 35.1653 21.8728 35.632C21.0888 36.08 20.4634 36.696 19.9968 37.48C19.5301 38.264 19.2968 39.1227 19.2968 40.056C19.2968 40.9893 19.5301 41.848 19.9968 42.632C20.4634 43.416 21.0888 44.0413 21.8728 44.508C22.6568 44.956 23.5154 45.18 24.4488 45.18ZM36.0618 41.036C36.2858 42.2307 36.8738 43.2293 37.8258 44.032C38.7778 44.816 39.8698 45.208 41.1018 45.208C42.0164 45.208 42.8564 44.9933 43.6218 44.564C44.3871 44.1347 45.0031 43.5467 45.4698 42.8L47.1218 43.752C46.4871 44.7787 45.6378 45.6 44.5738 46.216C43.5098 46.832 42.3524 47.14 41.1018 47.14C39.8324 47.14 38.6564 46.8227 37.5738 46.188C36.4911 45.5533 35.6324 44.6947 34.9978 43.612C34.3631 42.5293 34.0458 41.3533 34.0458 40.084C34.0458 38.796 34.3631 37.62 34.9978 36.556C35.6324 35.4733 36.4911 34.6147 37.5738 33.98C38.6564 33.3453 39.8324 33.028 41.1018 33.028C42.3711 33.028 43.5471 33.3453 44.6298 33.98C45.7124 34.6147 46.5711 35.4733 47.2058 36.556C47.8404 37.62 48.1578 38.796 48.1578 40.084C48.1578 40.308 48.1391 40.6253 48.1018 41.036H36.0618ZM41.1018 34.932C40.2804 34.932 39.4778 35.128 38.6938 35.52C37.9098 35.8933 37.2751 36.416 36.7898 37.088C36.3044 37.7413 36.0618 38.4507 36.0618 39.216H46.1418C46.1418 38.4507 45.8991 37.7413 45.4138 37.088C44.9284 36.416 44.2938 35.8933 43.5098 35.52C42.7444 35.128 41.9418 34.932 41.1018 34.932ZM56.4305 34.904H54.1065V47H52.1745V34.904H49.8505V33H52.1745V28.38H54.1065V33H56.4305V34.904ZM85.428 33.364V47H83.496V44.424C82.208 46.2347 80.4906 47.14 78.344 47.14C77.056 47.14 75.8706 46.832 74.788 46.216C73.7053 45.5813 72.8466 44.7227 72.212 43.64C71.596 42.5573 71.288 41.3813 71.288 40.112C71.288 38.824 71.596 37.6387 72.212 36.556C72.8466 35.4733 73.7053 34.624 74.788 34.008C75.8706 33.3733 77.056 33.056 78.344 33.056C79.6693 33.056 80.752 33.336 81.592 33.896C82.4506 34.4373 83.0853 35.0253 83.496 35.66V33.364H85.428ZM78.344 45.236C79.2773 45.236 80.136 45.012 80.92 44.564C81.704 44.0973 82.32 43.472 82.768 42.688C83.2346 41.904 83.468 41.0453 83.468 40.112C83.468 39.1787 83.2346 38.32 82.768 37.536C82.32 36.7333 81.704 36.108 80.92 35.66C80.136 35.1933 79.2773 34.96 78.344 34.96C77.4106 34.96 76.5426 35.1933 75.74 35.66C74.956 36.108 74.3306 36.7333 73.864 37.536C73.416 38.32 73.192 39.1787 73.192 40.112C73.192 41.0453 73.416 41.904 73.864 42.688C74.3306 43.472 74.956 44.0973 75.74 44.564C76.5426 45.012 77.4106 45.236 78.344 45.236ZM94.6323 35.072C94.203 34.8853 93.7736 34.792 93.3443 34.792C92.467 34.792 91.711 35.1093 91.0763 35.744C90.4416 36.3787 90.1243 37.1347 90.1243 38.012V47H88.2203V38.012C88.2203 37.004 88.4816 36.0893 89.0043 35.268C89.5456 34.428 90.2456 33.8027 91.1043 33.392L91.1603 33.364C91.851 33.0467 92.579 32.888 93.3443 32.888C94.539 32.888 95.603 33.252 96.5363 33.98L94.6323 35.072ZM103.337 47.14C102.067 47.14 100.882 46.8227 99.7808 46.188C98.6981 45.5533 97.8395 44.6947 97.2048 43.612C96.5701 42.5107 96.2528 41.3253 96.2528 40.056C96.2528 38.768 96.5701 37.5827 97.2048 36.5C97.8395 35.3987 98.6981 34.5307 99.7808 33.896C100.882 33.2427 102.067 32.916 103.337 32.916C104.625 32.916 105.81 33.2427 106.893 33.896C107.994 34.5307 108.862 35.3987 109.497 36.5C110.15 37.5827 110.477 38.768 110.477 40.056C110.477 41.3253 110.15 42.5107 109.497 43.612C108.862 44.6947 107.994 45.5533 106.893 46.188C105.81 46.8227 104.625 47.14 103.337 47.14ZM103.337 45.264C104.289 45.264 105.157 45.0307 105.941 44.564C106.743 44.0973 107.378 43.4627 107.845 42.66C108.311 41.8573 108.545 40.9893 108.545 40.056C108.545 39.104 108.311 38.2267 107.845 37.424C107.378 36.6213 106.743 35.9867 105.941 35.52C105.157 35.0533 104.289 34.82 103.337 34.82C102.403 34.82 101.535 35.0533 100.733 35.52C99.9488 35.9867 99.3235 36.6213 98.8568 37.424C98.3901 38.2267 98.1568 39.104 98.1568 40.056C98.1568 40.9893 98.3901 41.8573 98.8568 42.66C99.3235 43.4627 99.9488 44.0973 100.733 44.564C101.535 45.0307 102.403 45.264 103.337 45.264ZM118.286 47.112C117.278 47.112 116.344 46.8693 115.486 46.384C114.646 45.88 113.974 45.208 113.47 44.368C112.966 43.5093 112.714 42.576 112.714 41.568V33H114.646V41.568C114.646 42.2213 114.804 42.828 115.122 43.388C115.458 43.948 115.906 44.396 116.466 44.732C117.026 45.0493 117.632 45.208 118.286 45.208C118.939 45.208 119.546 45.0493 120.106 44.732C120.666 44.396 121.104 43.948 121.422 43.388C121.758 42.828 121.926 42.2213 121.926 41.568V33H123.83V46.86H121.926V45.516C121.459 46.0387 120.908 46.44 120.274 46.72C119.658 46.9813 118.995 47.112 118.286 47.112ZM132.182 33C133.19 33 134.114 33.252 134.954 33.756C135.813 34.2413 136.494 34.9133 136.998 35.772C137.502 36.612 137.754 37.536 137.754 38.544V47H135.822V38.544C135.822 37.8907 135.654 37.2933 135.318 36.752C135.001 36.192 134.562 35.7533 134.002 35.436C133.442 35.1 132.836 34.932 132.182 34.932C131.529 34.932 130.922 35.1 130.362 35.436C129.802 35.7533 129.354 36.192 129.018 36.752C128.701 37.2933 128.542 37.8907 128.542 38.544V47H126.638V33.364H128.542V34.596C129.009 34.0733 129.55 33.6813 130.166 33.42C130.801 33.14 131.473 33 132.182 33ZM154.199 47H152.323V44.396C150.96 46.2253 149.215 47.14 147.087 47.14C145.799 47.14 144.613 46.8227 143.531 46.188C142.448 45.5533 141.589 44.6947 140.955 43.612C140.32 42.5107 140.003 41.3253 140.003 40.056C140.003 38.7867 140.32 37.6107 140.955 36.528C141.589 35.4267 142.448 34.5587 143.531 33.924C144.613 33.2893 145.799 32.972 147.087 32.972C149.289 32.972 151.035 33.84 152.323 35.576V28.408H154.199V47ZM152.267 40.056C152.267 39.1227 152.033 38.264 151.567 37.48C151.1 36.696 150.465 36.0707 149.663 35.604C148.879 35.1373 148.02 34.904 147.087 34.904C146.153 34.904 145.295 35.1373 144.511 35.604C143.727 36.0707 143.101 36.696 142.635 37.48C142.168 38.264 141.935 39.1227 141.935 40.056C141.935 40.9893 142.168 41.8573 142.635 42.66C143.101 43.444 143.727 44.0693 144.511 44.536C145.295 45.0027 146.153 45.236 147.087 45.236C148.02 45.236 148.879 45.0027 149.663 44.536C150.465 44.0693 151.1 43.444 151.567 42.66C152.033 41.8573 152.267 40.9893 152.267 40.056ZM175.895 34.904H173.571V47H171.639V34.904H169.315V33H171.639V28.38H173.571V33H175.895V34.904ZM183.999 32.888C185.007 32.888 185.931 33.14 186.771 33.644C187.63 34.1293 188.302 34.8013 188.787 35.66C189.291 36.5 189.543 37.424 189.543 38.432V47H187.611V38.432C187.611 37.7787 187.443 37.172 187.107 36.612C186.79 36.052 186.351 35.6133 185.791 35.296C185.25 34.96 184.653 34.792 183.999 34.792C183.346 34.792 182.739 34.96 182.179 35.296C181.619 35.6133 181.171 36.052 180.835 36.612C180.518 37.172 180.359 37.7787 180.359 38.432V47H178.427V28.324H180.359V34.456C180.807 33.9333 181.339 33.5413 181.955 33.28C182.59 33.0187 183.271 32.888 183.999 32.888ZM194.081 41.036C194.305 42.2307 194.893 43.2293 195.845 44.032C196.797 44.816 197.889 45.208 199.121 45.208C200.036 45.208 200.876 44.9933 201.641 44.564C202.407 44.1347 203.023 43.5467 203.489 42.8L205.141 43.752C204.507 44.7787 203.657 45.6 202.593 46.216C201.529 46.832 200.372 47.14 199.121 47.14C197.852 47.14 196.676 46.8227 195.593 46.188C194.511 45.5533 193.652 44.6947 193.017 43.612C192.383 42.5293 192.065 41.3533 192.065 40.084C192.065 38.796 192.383 37.62 193.017 36.556C193.652 35.4733 194.511 34.6147 195.593 33.98C196.676 33.3453 197.852 33.028 199.121 33.028C200.391 33.028 201.567 33.3453 202.649 33.98C203.732 34.6147 204.591 35.4733 205.225 36.556C205.86 37.62 206.177 38.796 206.177 40.084C206.177 40.308 206.159 40.6253 206.121 41.036H194.081ZM199.121 34.932C198.3 34.932 197.497 35.128 196.713 35.52C195.929 35.8933 195.295 36.416 194.809 37.088C194.324 37.7413 194.081 38.4507 194.081 39.216H204.161C204.161 38.4507 203.919 37.7413 203.433 37.088C202.948 36.416 202.313 35.8933 201.529 35.52C200.764 35.128 199.961 34.932 199.121 34.932ZM241.91 33L236.394 47H234.378L231.494 39.748L228.61 47H226.594L221.022 33H223.094L227.602 44.34L230.458 37.172L228.806 33H230.878L235.386 44.34L239.866 33H241.91ZM249.571 47.14C248.302 47.14 247.117 46.8227 246.015 46.188C244.933 45.5533 244.074 44.6947 243.439 43.612C242.805 42.5107 242.487 41.3253 242.487 40.056C242.487 38.768 242.805 37.5827 243.439 36.5C244.074 35.3987 244.933 34.5307 246.015 33.896C247.117 33.2427 248.302 32.916 249.571 32.916C250.859 32.916 252.045 33.2427 253.127 33.896C254.229 34.5307 255.097 35.3987 255.731 36.5C256.385 37.5827 256.711 38.768 256.711 40.056C256.711 41.3253 256.385 42.5107 255.731 43.612C255.097 44.6947 254.229 45.5533 253.127 46.188C252.045 46.8227 250.859 47.14 249.571 47.14ZM249.571 45.264C250.523 45.264 251.391 45.0307 252.175 44.564C252.978 44.0973 253.613 43.4627 254.079 42.66C254.546 41.8573 254.779 40.9893 254.779 40.056C254.779 39.104 254.546 38.2267 254.079 37.424C253.613 36.6213 252.978 35.9867 252.175 35.52C251.391 35.0533 250.523 34.82 249.571 34.82C248.638 34.82 247.77 35.0533 246.967 35.52C246.183 35.9867 245.558 36.6213 245.091 37.424C244.625 38.2267 244.391 39.104 244.391 40.056C244.391 40.9893 244.625 41.8573 245.091 42.66C245.558 43.4627 246.183 44.0973 246.967 44.564C247.77 45.0307 248.638 45.264 249.571 45.264ZM265.64 35.072C265.211 34.8853 264.781 34.792 264.352 34.792C263.475 34.792 262.719 35.1093 262.084 35.744C261.449 36.3787 261.132 37.1347 261.132 38.012V47H259.228V38.012C259.228 37.004 259.489 36.0893 260.012 35.268C260.553 34.428 261.253 33.8027 262.112 33.392L262.168 33.364C262.859 33.0467 263.587 32.888 264.352 32.888C265.547 32.888 266.611 33.252 267.544 33.98L265.64 35.072ZM271.413 28.38V47H269.509V28.38H271.413ZM288.129 47H286.253V44.396C284.89 46.2253 283.145 47.14 281.017 47.14C279.729 47.14 278.543 46.8227 277.461 46.188C276.378 45.5533 275.519 44.6947 274.885 43.612C274.25 42.5107 273.933 41.3253 273.933 40.056C273.933 38.7867 274.25 37.6107 274.885 36.528C275.519 35.4267 276.378 34.5587 277.461 33.924C278.543 33.2893 279.729 32.972 281.017 32.972C283.219 32.972 284.965 33.84 286.253 35.576V28.408H288.129V47ZM286.197 40.056C286.197 39.1227 285.963 38.264 285.497 37.48C285.03 36.696 284.395 36.0707 283.593 35.604C282.809 35.1373 281.95 34.904 281.017 34.904C280.083 34.904 279.225 35.1373 278.441 35.604C277.657 36.0707 277.031 36.696 276.565 37.48C276.098 38.264 275.865 39.1227 275.865 40.056C275.865 40.9893 276.098 41.8573 276.565 42.66C277.031 43.444 277.657 44.0693 278.441 44.536C279.225 45.0027 280.083 45.236 281.017 45.236C281.95 45.236 282.809 45.0027 283.593 44.536C284.395 44.0693 285.03 43.444 285.497 42.66C285.963 41.8573 286.197 40.9893 286.197 40.056ZM294.308 44.004L292.376 49.856H290.64L292.292 44.004H294.308ZM16.2233 61.056L10.7073 75H8.66334L3.14734 61.056H5.19134L9.69934 72.34L14.1793 61.056H16.2233ZM19.9998 57.108C20.3358 57.108 20.6252 57.2293 20.8678 57.472C21.1105 57.7147 21.2318 58.004 21.2318 58.34C21.2318 58.6947 21.1105 58.9933 20.8678 59.236C20.6252 59.4787 20.3358 59.6 19.9998 59.6C19.6452 59.6 19.3465 59.4787 19.1038 59.236C18.8612 58.9933 18.7398 58.6947 18.7398 58.34C18.7398 58.004 18.8612 57.7147 19.1038 57.472C19.3465 57.2293 19.6452 57.108 19.9998 57.108ZM20.9518 61V75H19.0198V61H20.9518ZM37.0569 61.364V75H35.1249V72.424C33.8369 74.2347 32.1195 75.14 29.9729 75.14C28.6849 75.14 27.4995 74.832 26.4169 74.216C25.3342 73.5813 24.4755 72.7227 23.8409 71.64C23.2249 70.5573 22.9169 69.3813 22.9169 68.112C22.9169 66.824 23.2249 65.6387 23.8409 64.556C24.4755 63.4733 25.3342 62.624 26.4169 62.008C27.4995 61.3733 28.6849 61.056 29.9729 61.056C31.2982 61.056 32.3809 61.336 33.2209 61.896C34.0795 62.4373 34.7142 63.0253 35.1249 63.66V61.364H37.0569ZM29.9729 73.236C30.9062 73.236 31.7649 73.012 32.5489 72.564C33.3329 72.0973 33.9489 71.472 34.3969 70.688C34.8635 69.904 35.0969 69.0453 35.0969 68.112C35.0969 67.1787 34.8635 66.32 34.3969 65.536C33.9489 64.7333 33.3329 64.108 32.5489 63.66C31.7649 63.1933 30.9062 62.96 29.9729 62.96C29.0395 62.96 28.1715 63.1933 27.3689 63.66C26.5849 64.108 25.9595 64.7333 25.4929 65.536C25.0449 66.32 24.8209 67.1787 24.8209 68.112C24.8209 69.0453 25.0449 69.904 25.4929 70.688C25.9595 71.472 26.5849 72.0973 27.3689 72.564C28.1715 73.012 29.0395 73.236 29.9729 73.236ZM59.2587 75.14C57.9894 75.14 56.804 74.8227 55.7027 74.188C54.62 73.5533 53.7614 72.6947 53.1267 71.612C52.492 70.5107 52.1747 69.3253 52.1747 68.056C52.1747 66.768 52.492 65.5827 53.1267 64.5C53.7614 63.3987 54.62 62.5307 55.7027 61.896C56.804 61.2427 57.9894 60.916 59.2587 60.916C60.5467 60.916 61.732 61.2427 62.8147 61.896C63.916 62.5307 64.784 63.3987 65.4187 64.5C66.072 65.5827 66.3987 66.768 66.3987 68.056C66.3987 69.3253 66.072 70.5107 65.4187 71.612C64.784 72.6947 63.916 73.5533 62.8147 74.188C61.732 74.8227 60.5467 75.14 59.2587 75.14ZM59.2587 73.264C60.2107 73.264 61.0787 73.0307 61.8627 72.564C62.6654 72.0973 63.3 71.4627 63.7667 70.66C64.2334 69.8573 64.4667 68.9893 64.4667 68.056C64.4667 67.104 64.2334 66.2267 63.7667 65.424C63.3 64.6213 62.6654 63.9867 61.8627 63.52C61.0787 63.0533 60.2107 62.82 59.2587 62.82C58.3254 62.82 57.4574 63.0533 56.6547 63.52C55.8707 63.9867 55.2454 64.6213 54.7787 65.424C54.312 66.2267 54.0787 67.104 54.0787 68.056C54.0787 68.9893 54.312 69.8573 54.7787 70.66C55.2454 71.4627 55.8707 72.0973 56.6547 72.564C57.4574 73.0307 58.3254 73.264 59.2587 73.264ZM74.2076 75.112C73.1996 75.112 72.2663 74.8693 71.4076 74.384C70.5676 73.88 69.8956 73.208 69.3916 72.368C68.8876 71.5093 68.6356 70.576 68.6356 69.568V61H70.5676V69.568C70.5676 70.2213 70.7263 70.828 71.0436 71.388C71.3796 71.948 71.8276 72.396 72.3876 72.732C72.9476 73.0493 73.5543 73.208 74.2076 73.208C74.861 73.208 75.4676 73.0493 76.0276 72.732C76.5876 72.396 77.0263 71.948 77.3436 71.388C77.6796 70.828 77.8476 70.2213 77.8476 69.568V61H79.7516V74.86H77.8476V73.516C77.381 74.0387 76.8303 74.44 76.1956 74.72C75.5796 74.9813 74.917 75.112 74.2076 75.112ZM88.9722 63.072C88.5428 62.8853 88.1135 62.792 87.6842 62.792C86.8068 62.792 86.0508 63.1093 85.4162 63.744C84.7815 64.3787 84.4642 65.1347 84.4642 66.012V75H82.5602V66.012C82.5602 65.004 82.8215 64.0893 83.3442 63.268C83.8855 62.428 84.5855 61.8027 85.4442 61.392L85.5002 61.364C86.1908 61.0467 86.9188 60.888 87.6842 60.888C88.8788 60.888 89.9428 61.252 90.8762 61.98L88.9722 63.072ZM112.294 62.904H109.97V75H108.038V62.904H105.714V61H108.038V56.38H109.97V61H112.294V62.904ZM121.238 63.072C120.808 62.8853 120.379 62.792 119.95 62.792C119.072 62.792 118.316 63.1093 117.682 63.744C117.047 64.3787 116.73 65.1347 116.73 66.012V75H114.826V66.012C114.826 65.004 115.087 64.0893 115.61 63.268C116.151 62.428 116.851 61.8027 117.71 61.392L117.766 61.364C118.456 61.0467 119.184 60.888 119.95 60.888C121.144 60.888 122.208 61.252 123.142 61.98L121.238 63.072ZM130.399 75.112C129.391 75.112 128.458 74.8693 127.599 74.384C126.759 73.88 126.087 73.208 125.583 72.368C125.079 71.5093 124.827 70.576 124.827 69.568V61H126.759V69.568C126.759 70.2213 126.918 70.828 127.235 71.388C127.571 71.948 128.019 72.396 128.579 72.732C129.139 73.0493 129.746 73.208 130.399 73.208C131.052 73.208 131.659 73.0493 132.219 72.732C132.779 72.396 133.218 71.948 133.535 71.388C133.871 70.828 134.039 70.2213 134.039 69.568V61H135.943V74.86H134.039V73.516C133.572 74.0387 133.022 74.44 132.387 74.72C131.771 74.9813 131.108 75.112 130.399 75.112ZM140.158 71.248C140.307 71.7707 140.541 72.1813 140.858 72.48C141.381 72.9653 142.146 73.208 143.154 73.208C144.031 73.208 144.741 73.0027 145.282 72.592C145.823 72.1813 146.094 71.6493 146.094 70.996C146.094 70.38 145.973 69.9227 145.73 69.624C145.487 69.3253 145.17 69.1387 144.778 69.064C144.405 68.9707 143.882 68.9147 143.21 68.896C142.239 68.84 141.446 68.7373 140.83 68.588C140.214 68.42 139.654 68.056 139.15 67.496C138.534 66.7307 138.226 65.8907 138.226 64.976C138.226 64.752 138.235 64.584 138.254 64.472C138.403 63.296 138.898 62.4 139.738 61.784C140.578 61.1493 141.707 60.832 143.126 60.832H143.154C144.199 60.832 145.049 61.028 145.702 61.42C146.355 61.812 146.859 62.288 147.214 62.848C147.587 63.464 147.821 64.108 147.914 64.78H145.954C145.917 64.5187 145.795 64.2107 145.59 63.856C145.123 63.1467 144.311 62.7733 143.154 62.736C141.978 62.736 141.203 62.932 140.83 63.324C140.457 63.716 140.233 64.1733 140.158 64.696C140.139 64.7707 140.13 64.8733 140.13 65.004C140.13 65.452 140.289 65.8533 140.606 66.208C140.867 66.5253 141.203 66.74 141.614 66.852C142.025 66.9453 142.613 67.02 143.378 67.076C143.994 67.1133 144.517 67.1693 144.946 67.244C145.394 67.3187 145.814 67.4587 146.206 67.664C147.419 68.3173 148.026 69.428 148.026 70.996C148.026 71.5373 147.914 72.06 147.69 72.564C147.485 73.0493 147.186 73.4787 146.794 73.852C145.917 74.7107 144.713 75.14 143.182 75.14C141.689 75.14 140.475 74.72 139.542 73.88C138.814 73.1707 138.366 72.2933 138.198 71.248H140.158ZM156.837 62.904H154.513V75H152.581V62.904H150.257V61H152.581V56.38H154.513V61H156.837V62.904ZM160.257 69.036C160.481 70.2307 161.069 71.2293 162.021 72.032C162.973 72.816 164.065 73.208 165.297 73.208C166.212 73.208 167.052 72.9933 167.817 72.564C168.582 72.1347 169.198 71.5467 169.665 70.8L171.317 71.752C170.682 72.7787 169.833 73.6 168.769 74.216C167.705 74.832 166.548 75.14 165.297 75.14C164.028 75.14 162.852 74.8227 161.769 74.188C160.686 73.5533 159.828 72.6947 159.193 71.612C158.558 70.5293 158.241 69.3533 158.241 68.084C158.241 66.796 158.558 65.62 159.193 64.556C159.828 63.4733 160.686 62.6147 161.769 61.98C162.852 61.3453 164.028 61.028 165.297 61.028C166.566 61.028 167.742 61.3453 168.825 61.98C169.908 62.6147 170.766 63.4733 171.401 64.556C172.036 65.62 172.353 66.796 172.353 68.084C172.353 68.308 172.334 68.6253 172.297 69.036H160.257ZM165.297 62.932C164.476 62.932 163.673 63.128 162.889 63.52C162.105 63.8933 161.47 64.416 160.985 65.088C160.5 65.7413 160.257 66.4507 160.257 67.216H170.337C170.337 66.4507 170.094 65.7413 169.609 65.088C169.124 64.416 168.489 63.8933 167.705 63.52C166.94 63.128 166.137 62.932 165.297 62.932ZM188.515 75H186.639V72.396C185.277 74.2253 183.531 75.14 181.403 75.14C180.115 75.14 178.93 74.8227 177.847 74.188C176.765 73.5533 175.906 72.6947 175.271 71.612C174.637 70.5107 174.319 69.3253 174.319 68.056C174.319 66.7867 174.637 65.6107 175.271 64.528C175.906 63.4267 176.765 62.5587 177.847 61.924C178.93 61.2893 180.115 60.972 181.403 60.972C183.606 60.972 185.351 61.84 186.639 63.576V56.408H188.515V75ZM186.583 68.056C186.583 67.1227 186.35 66.264 185.883 65.48C185.417 64.696 184.782 64.0707 183.979 63.604C183.195 63.1373 182.337 62.904 181.403 62.904C180.47 62.904 179.611 63.1373 178.827 63.604C178.043 64.0707 177.418 64.696 176.951 65.48C176.485 66.264 176.251 67.1227 176.251 68.056C176.251 68.9893 176.485 69.8573 176.951 70.66C177.418 71.444 178.043 72.0693 178.827 72.536C179.611 73.0027 180.47 73.236 181.403 73.236C182.337 73.236 183.195 73.0027 183.979 72.536C184.782 72.0693 185.417 71.444 185.883 70.66C186.35 69.8573 186.583 68.9893 186.583 68.056ZM203.912 80.964V61.364H205.816V63.688C206.469 62.7733 207.234 62.092 208.112 61.644C208.989 61.1773 209.95 60.944 210.996 60.944C212.265 60.944 213.441 61.2613 214.524 61.896C215.606 62.5307 216.465 63.3893 217.1 64.472C217.734 65.5547 218.052 66.7307 218.052 68C218.052 69.2693 217.734 70.4453 217.1 71.528C216.465 72.6107 215.606 73.4693 214.524 74.104C213.441 74.7387 212.265 75.056 210.996 75.056C209.67 75.056 208.578 74.7853 207.72 74.244C206.861 73.684 206.226 73.0867 205.816 72.452V80.964H203.912ZM210.996 62.876C210.062 62.876 209.204 63.1093 208.42 63.576C207.636 64.024 207.01 64.64 206.544 65.424C206.077 66.208 205.844 67.0667 205.844 68C205.844 68.9333 206.077 69.792 206.544 70.576C207.01 71.36 207.636 71.9853 208.42 72.452C209.204 72.9187 210.062 73.152 210.996 73.152C211.929 73.152 212.788 72.9187 213.572 72.452C214.356 71.9853 214.972 71.36 215.42 70.576C215.886 69.792 216.12 68.9333 216.12 68C216.12 67.0667 215.886 66.208 215.42 65.424C214.972 64.64 214.356 64.024 213.572 63.576C212.788 63.1093 211.929 62.876 210.996 62.876ZM222.468 56.38V75H220.564V56.38H222.468ZM239.127 61.364V75H237.195V72.424C235.907 74.2347 234.19 75.14 232.043 75.14C230.755 75.14 229.57 74.832 228.487 74.216C227.405 73.5813 226.546 72.7227 225.911 71.64C225.295 70.5573 224.987 69.3813 224.987 68.112C224.987 66.824 225.295 65.6387 225.911 64.556C226.546 63.4733 227.405 62.624 228.487 62.008C229.57 61.3733 230.755 61.056 232.043 61.056C233.369 61.056 234.451 61.336 235.291 61.896C236.15 62.4373 236.785 63.0253 237.195 63.66V61.364H239.127ZM232.043 73.236C232.977 73.236 233.835 73.012 234.619 72.564C235.403 72.0973 236.019 71.472 236.467 70.688C236.934 69.904 237.167 69.0453 237.167 68.112C237.167 67.1787 236.934 66.32 236.467 65.536C236.019 64.7333 235.403 64.108 234.619 63.66C233.835 63.1933 232.977 62.96 232.043 62.96C231.11 62.96 230.242 63.1933 229.439 63.66C228.655 64.108 228.03 64.7333 227.563 65.536C227.115 66.32 226.891 67.1787 226.891 68.112C226.891 69.0453 227.115 69.904 227.563 70.688C228.03 71.472 228.655 72.0973 229.439 72.564C230.242 73.012 231.11 73.236 232.043 73.236ZM248.22 62.904H245.896V75H243.964V62.904H241.64V61H243.964V56.38H245.896V61H248.22V62.904ZM257.332 58.144C256.51 58.144 255.792 58.424 255.176 58.984C254.578 59.5253 254.233 60.1973 254.14 61H257.332V62.904H254.112V75H252.208V62.904H250.752V61H252.208C252.264 60.1227 252.525 59.32 252.992 58.592C253.477 57.864 254.093 57.2947 254.84 56.884C255.605 56.4547 256.436 56.24 257.332 56.24V58.144ZM265.267 75.14C263.997 75.14 262.812 74.8227 261.711 74.188C260.628 73.5533 259.769 72.6947 259.135 71.612C258.5 70.5107 258.183 69.3253 258.183 68.056C258.183 66.768 258.5 65.5827 259.135 64.5C259.769 63.3987 260.628 62.5307 261.711 61.896C262.812 61.2427 263.997 60.916 265.267 60.916C266.555 60.916 267.74 61.2427 268.823 61.896C269.924 62.5307 270.792 63.3987 271.427 64.5C272.08 65.5827 272.407 66.768 272.407 68.056C272.407 69.3253 272.08 70.5107 271.427 71.612C270.792 72.6947 269.924 73.5533 268.823 74.188C267.74 74.8227 266.555 75.14 265.267 75.14ZM265.267 73.264C266.219 73.264 267.087 73.0307 267.871 72.564C268.673 72.0973 269.308 71.4627 269.775 70.66C270.241 69.8573 270.475 68.9893 270.475 68.056C270.475 67.104 270.241 66.2267 269.775 65.424C269.308 64.6213 268.673 63.9867 267.871 63.52C267.087 63.0533 266.219 62.82 265.267 62.82C264.333 62.82 263.465 63.0533 262.663 63.52C261.879 63.9867 261.253 64.6213 260.787 65.424C260.32 66.2267 260.087 67.104 260.087 68.056C260.087 68.9893 260.32 69.8573 260.787 70.66C261.253 71.4627 261.879 72.0973 262.663 72.564C263.465 73.0307 264.333 73.264 265.267 73.264ZM281.335 63.072C280.906 62.8853 280.477 62.792 280.047 62.792C279.17 62.792 278.414 63.1093 277.779 63.744C277.145 64.3787 276.827 65.1347 276.827 66.012V75H274.923V66.012C274.923 65.004 275.185 64.0893 275.707 63.268C276.249 62.428 276.949 61.8027 277.807 61.392L277.863 61.364C278.554 61.0467 279.282 60.888 280.047 60.888C281.242 60.888 282.306 61.252 283.239 61.98L281.335 63.072ZM299.248 61C300.181 61 301.04 61.2333 301.824 61.7C302.608 62.148 303.224 62.7733 303.672 63.576C304.138 64.36 304.372 65.2187 304.372 66.152V75H302.468V66.152C302.468 65.256 302.15 64.5 301.516 63.884C300.881 63.2493 300.125 62.932 299.248 62.932C298.352 62.932 297.586 63.2493 296.952 63.884C296.336 64.5 296.028 65.2467 296.028 66.124V66.152V75H294.096V66.124C294.096 65.2467 293.778 64.5 293.144 63.884C292.509 63.2493 291.753 62.932 290.876 62.932C289.998 62.932 289.242 63.2587 288.608 63.912C287.973 64.5467 287.656 65.312 287.656 66.208V75H285.752V61.364H287.656V62.456C288.029 62.008 288.505 61.6533 289.084 61.392C289.681 61.1307 290.278 61 290.876 61C291.716 61 292.5 61.196 293.228 61.588C293.974 61.98 294.581 62.5027 295.048 63.156C295.533 62.5027 296.14 61.98 296.868 61.588C297.614 61.196 298.408 61 299.248 61ZM307.414 74.944C307.731 74.944 308.002 74.8413 308.226 74.636C308.45 74.412 308.562 74.1413 308.562 73.824C308.562 73.5067 308.45 73.2453 308.226 73.04C308.002 72.816 307.731 72.704 307.414 72.704C307.115 72.704 306.854 72.816 306.63 73.04C306.424 73.264 306.322 73.5253 306.322 73.824C306.322 74.1227 306.424 74.384 306.63 74.608C306.854 74.832 307.115 74.944 307.414 74.944Z" fill="#D7B67E"/>
</svg>
