<svg width="495" height="124" viewBox="0 0 495 124" fill="none" xmlns="http://www.w3.org/2000/svg">
<path d="M17.7 80.7C17.4333 80.7 17.3 80.5667 17.3 80.3C17.3 79.9667 17.1333 79.8 16.8 79.8C16.3333 79.8 15.9333 79.9333 15.6 80.2C15.1333 80.4 14.6667 80.5 14.2 80.5C13.9333 80.5 13.5667 80.3667 13.1 80.1C12.7 79.8333 12.5 79.5667 12.5 79.3C12.5 79.3 12.5667 79.2333 12.7 79.1C12.7667 79.0333 12.8 78.9333 12.8 78.8C12.8 78.7333 12.7667 78.7 12.7 78.7C12.6333 78.7 12.5667 78.7333 12.5 78.8H12.3L10.2 79.1C9.86667 79.1 9.5 79.1 9.1 79.1C8.76667 79.1 8.43333 79.1333 8.1 79.2L7.9 78.9C8.03333 78.9 8.1 78.8333 8.1 78.7V78.4C8.3 78.3333 8.5 78.2667 8.7 78.2C8.9 78.1333 9.06667 78 9.2 77.8L9 77.5H6.1C5.9 77.2333 5.53333 76.9333 5 76.6C4.4 76.2667 4.1 75.9333 4.1 75.6C4.1 75.5333 4.16667 75.4333 4.3 75.3C4.36667 75.2333 4.4 75.1 4.4 74.9C3.06667 74.0333 2.06667 72.8333 1.4 71.3C0.8 69.7667 0.4 68.1333 0.2 66.4C0.0666668 64.6 1.41561e-07 62.9333 1.41561e-07 61.4V60.8C1.41561e-07 60.6 0.1 60.4667 0.3 60.4L0.5 60.5L0.7 60.3H0.9C0.766667 59.9 0.7 59.6 0.7 59.4V58.5C0.7 57.5 0.866667 56.2667 1.2 54.8C1.2 54.6667 1.2 54.5333 1.2 54.4C1.26667 54.2 1.33333 54 1.4 53.8C1.4 53.6667 1.43333 53.5667 1.5 53.5V53.6L3.2 48.3C3.4 48.0333 3.6 47.8 3.8 47.6C4 47.4 4.23333 47.1667 4.5 46.9C4.7 46.7 4.9 46.5 5.1 46.3C5.3 46.0333 5.5 45.7667 5.7 45.5C5.76667 45.3 6 44.7667 6.4 43.9C6.86667 42.9667 7.36667 41.9333 7.9 40.8C8.5 39.6667 9.1 38.6667 9.7 37.8C10.3 36.9333 10.8 36.4667 11.2 36.4C11.2667 36.1333 11.3667 35.9 11.5 35.7C11.6333 35.4333 11.7667 35.1667 11.9 34.9C12.0333 34.6333 12.1667 34.4 12.3 34.2C12.4333 33.9333 12.5333 33.6667 12.6 33.4C12.9333 33 13.3 32.6333 13.7 32.3C14.1 31.9 14.5 31.5333 14.9 31.2C15.0333 31.1333 15.3333 30.8667 15.8 30.4L16 30.3H16.2L16.5 30.2L16.9 30L16.5 29.7C18.1 26.9 20.3333 24.2667 23.2 21.8C26.0667 19.3333 29.1333 17.0667 32.4 15C35.7333 12.8667 38.7667 11.0667 41.5 9.6C41.6333 9.26666 41.7333 9.06666 41.8 9C41.8 8.86666 41.9333 8.76666 42.2 8.7C42.5333 8.56666 42.8667 8.4 43.2 8.2C43.6 8 43.9667 7.83333 44.3 7.7L46.4 6.8C48.6667 5.8 50.6333 4.93333 52.3 4.19999C53.9667 3.4 55.6333 2.7 57.3 2.1C58.9667 1.5 60.9333 1.03333 63.2 0.699998C63.7333 0.633332 64.3 0.599999 64.9 0.599999C65.5 0.533329 66.0667 0.499995 66.6 0.499995C67.7333 0.499995 68.8333 0.399996 69.9 0.199998C70.7 0.33333 71.5 0.799997 72.3 1.6C73.1 2.33333 73.7667 3.16666 74.3 4.1C74.8333 5.03333 75.1 5.9 75.1 6.7C75.1 8.1 74.5667 9.13333 73.5 9.79999C73.1 10.0667 72.6333 10.2667 72.1 10.4L70.6 11C70.0667 11.2 69.5333 11.4333 69 11.7C68.5333 11.9 68.0333 12.1333 67.5 12.4C66.9667 12.6667 66.4 12.9 65.8 13.1C65.2667 13.3 64.7333 13.5333 64.2 13.8C62.9333 14.2667 61.3333 14.9667 59.4 15.9C57.4 16.7667 55.2667 17.8 53 19C50.8 20.2 48.5667 21.4667 46.3 22.8C44.1 24.1333 42.0333 25.5667 40.1 27.1C38.2333 28.5667 36.6 30.0333 35.2 31.5C33.8667 32.9667 33.0667 34.4 32.8 35.8C32.6 36 32.4 36.1 32.2 36.1C31.7333 36.1 31.5 35.8 31.5 35.2C31.5 34.9333 31.6 34.8 31.8 34.8C32.8 31.6 34.5667 28.8 37.1 26.4C39.7 23.9333 42.6333 21.8 45.9 20C49.2333 18.2 52.3667 16.6333 55.3 15.3C57.6333 14.2333 59.9667 13.2 62.3 12.2C64.6333 11.1333 66.9667 10.1 69.3 9.1L69.9 8.7C70.1667 8.56666 70.3333 8.4 70.4 8.2H70.7L70.8 7.89999C70.7333 7.83333 70.6333 7.8 70.5 7.8C70.3667 7.8 70.2333 7.76666 70.1 7.7C69.8333 7.63333 69.7333 7.46666 69.8 7.2C69.2667 7.4 68.5 7.63333 67.5 7.89999C66.5667 8.16666 65.8333 8.3 65.3 8.3C64.9667 8.3 64.8333 8.2 64.9 8H64.7C64.2333 8 63.3667 8.2 62.1 8.6C60.8333 9 59.4 9.5 57.8 10.1C56.2 10.7 54.6 11.3333 53 12C51.4667 12.6 50.1333 13.1333 49 13.6C47.8667 14.0667 47.2 14.3667 47 14.5C45.8 15.1667 44.6 15.9667 43.4 16.9C42.8 17.3667 42.2 17.8 41.6 18.2C41 18.6 40.4 19 39.8 19.4C39.9333 19.4 40.1 19.4333 40.3 19.5C40.5667 19.5667 40.6667 19.7 40.6 19.9C40.2 19.9667 39.5 20.2 38.5 20.6C37.5667 21 36.6667 21.4333 35.8 21.9C34.9333 22.3 34.4333 22.7 34.3 23.1C34.3667 23.0333 34.4333 23 34.5 23C34.5667 23 34.6333 22.9667 34.7 22.9C34.7667 22.8333 34.9 22.8 35.1 22.8C35.1667 22.8 35.2 22.8667 35.2 23C35.2 23 35.1333 23.2 35 23.6C33.8 24 32.3667 24.8667 30.7 26.2C29.1 27.5333 27.4 29.1333 25.6 31C23.8667 32.8 22.1667 34.7 20.5 36.7C18.8333 38.7 17.3333 40.6 16 42.4C14.7333 44.1333 13.7333 45.5667 13 46.7C11.3333 49.3667 9.83333 52.4 8.5 55.8C7.23333 59.1333 6.6 62.3667 6.6 65.5C6.6 72.3667 10.0667 75.8 17 75.8H18.4C18.6 75.8 18.8 75.8 19 75.8C19.2 75.8 19.4333 75.7667 19.7 75.7V75.4C20.1 75 20.5667 74.8 21.1 74.8C21.1667 74.8 21.2 74.8333 21.2 74.9H21.5C21.6333 74.5667 21.8333 74.4 22.1 74.4L23 74.1L24.4 74.6V74.3C24.7333 73.9667 25.2667 73.6333 26 73.3C26.8 72.9667 27.4 72.7333 27.8 72.6C27.8667 72.6 27.9333 72.6 28 72.6C28.0667 72.5333 28.1667 72.4667 28.3 72.4C28.5667 72.3333 28.7 72.3 28.7 72.3C29.2333 71.9667 29.7333 71.5667 30.2 71.1C30.6667 70.6333 31.1 70.2 31.5 69.8L32.4 69.4L32.3 70.2L32.9 70.1V70C32.9 69.8 33 69.6667 33.2 69.6L33.5 69.3L33.9 69.2C34.2333 68.9333 34.9667 68.3333 36.1 67.4C37.3 66.4 38.6 65.3333 40 64.2C41.4667 63 42.8 61.9667 44 61.1C45.2667 60.1667 46.1333 59.6667 46.6 59.6L46.3 59.4C47.1 58.6667 48.1667 57.7667 49.5 56.7C50.9 55.5667 52.2 54.4667 53.4 53.4C54.6 52.2667 55.2667 51.3667 55.4 50.7H56C56 51.2333 55.8333 51.4333 55.5 51.3L53.8 54.6L52.8 55.5C52.6 55.6333 52.4 55.8 52.2 56C52 56.1333 51.8333 56.2667 51.7 56.4C49.9667 58.2 47.9333 60.2667 45.6 62.6C43.3333 64.8667 40.9667 67.0333 38.5 69.1C36.0333 71.1 33.6667 72.7 31.4 73.9C31.0667 74.0333 30.6 74.2333 30 74.5C29.4 74.7667 29.0333 75.0667 28.9 75.4L29.5 75.3L25.6 77.7L25.7 77.4C25.5 77.4667 25 77.6333 24.2 77.9C23.4667 78.2333 22.6 78.6 21.6 79C20.6 79.4667 19.7333 79.8333 19 80.1C18.2667 80.4333 17.8333 80.6333 17.7 80.7ZM11.5 123.2C9.63333 123.2 8.16667 122.767 7.1 121.9C6.03333 121.033 5.5 119.633 5.5 117.7C5.5 116.5 5.63333 115.467 5.9 114.6L6.7 111.4L7.2 111.1L8.1 108.8L9 106.4C9.4 105.667 9.86667 104.933 10.4 104.2C10.9333 103.467 11.4 102.7 11.8 101.9C13.1333 99.5667 14.1667 97.7 14.9 96.3C15.7 94.9 16.6333 93.5667 17.7 92.3C18.7667 91.1 20.3333 89.6667 22.4 88C22.4667 87.6 22.6667 87.3333 23 87.2C23.1333 87.1333 23.2333 87.0667 23.3 87C23.3667 86.9333 23.4333 86.8667 23.5 86.8L23.2 86.5C23.2 86.3667 23.3 86.2667 23.5 86.2C23.7667 86.1333 23.9333 86.1 24 86.1V86L29.3 81.3C29.3 81.2333 29.3667 81 29.5 80.6C29.6333 80.2667 29.7333 80.1 29.8 80.1H29.9C29.9 80.9 29.7667 81.6 29.5 82.2H29.8C29.8667 82.1333 29.9667 81.9667 30.1 81.7C30.2333 81.4333 30.3 81.2667 30.3 81.2V80.7C31.4333 79.7667 32.4 78.7 33.2 77.5L33.5 78L34.5 76.7V76.6C34.6333 76.6 35.1 76.3333 35.9 75.8C36.7 75.2667 37.5667 74.6667 38.5 74C39.5 73.2667 40.3667 72.6 41.1 72C41.9 71.3333 42.3333 70.8667 42.4 70.6L42.5 70.5L50.5 66.8L51.5 67C51.7 66.4667 52.0333 65.9667 52.5 65.5C52.5 65.4333 52.5333 65.4 52.6 65.4H52.8V65.2C53.5333 64.6 54.3667 64.2 55.3 64C55.3667 63.9333 55.4667 63.8333 55.6 63.7C55.7333 63.5667 55.8 63.4667 55.8 63.4C55.8 63.1333 55.7333 63 55.6 63C55.4 63 55.3 62.8667 55.3 62.6C55.3 62.2 55.4333 61.7667 55.7 61.3C55.9667 60.9667 56.1 60.5667 56.1 60.1V59.9H56C56 59.9667 55.9333 60 55.8 60C55.7333 60 55.7 59.9333 55.7 59.8C55.7 59.2 55.9 58.6 56.3 58C56.5667 57.5333 56.7667 57 56.9 56.4L57.2 54.4C57.2667 54.0667 57.3 53.7667 57.3 53.5C57.3667 53.1667 57.4 52.8667 57.4 52.6C57.4 52.4 57.3667 52.1667 57.3 51.9C57.3 51.6333 57.2667 51.3333 57.2 51L57.1 51.3V51C57.1 50.4667 57.1 49.9 57.1 49.3C57.1667 48.7 57.2333 48.1 57.3 47.5C57.3667 46.9 57.4 46.3 57.4 45.7C57.4 45.1 57.4333 44.5333 57.5 44C58.1 43.2667 58.9333 42.9 60 42.9C61 42.9 61.9333 43.2333 62.8 43.9C63.6667 44.5667 64.3667 45.3333 64.9 46.2C64.8333 46.2667 64.8 46.3333 64.8 46.4C64.8 46.4 64.8667 46.6 65 47C65.1333 47.2667 65.1333 47.4667 65 47.6C65.0667 47.8 65.1 48.2667 65.1 49C65.1 50.0667 65 51.1 64.8 52.1C64.4667 53.2333 64.2667 54.3 64.2 55.3C64.1333 56.1 63.9333 56.8 63.6 57.4C63.4 57.6667 63.2 58 63 58.4C62.8667 58.7333 62.8 59.0667 62.8 59.4V60.2C62.8 60.6 62.7333 60.8667 62.6 61C62.4667 61.1333 62.3 61.1667 62.1 61.1C61.8333 61.1 61.7 61.2667 61.7 61.6C61.7 61.8 61.7333 61.9333 61.8 62C61.8667 62.1333 61.9 62.3 61.9 62.5C61.9 62.6333 61.8667 62.8 61.8 63C61.7333 63.1333 61.6667 63.2667 61.6 63.4H62.9C64.8333 63.4 66.5667 63.6667 68.1 64.2C69.7 64.6667 70.5 65.9333 70.5 68C70.5 68.4 70.3667 68.7333 70.1 69C69.9 69.2 69.7333 69.4667 69.6 69.8C69.4667 69.9333 69.3667 70.0667 69.3 70.2C69.2333 70.4 69.1 70.5 68.9 70.5C68.7 70.5 68.6667 70.4333 68.8 70.3C68.8 70.2333 68.7333 70.1333 68.6 70C68.6 69.5333 68.7333 69.1333 69 68.8C69.2 68.4 69.3 68 69.3 67.6C69.3 67 68.9667 66.5333 68.3 66.2C67.6333 65.8667 66.8667 65.6333 66 65.5C65.2 65.3 64.5 65.2 63.9 65.2C63.3667 65.2 62.8667 65.2333 62.4 65.3C62 65.3 61.5667 65.3667 61.1 65.5C61.3 65.7 61.4 65.9333 61.4 66.2L61.1 67.4C60.8333 68 60.7 68.3667 60.7 68.5C59.6333 71.2333 58.3333 74 56.8 76.8C55.3333 79.6667 53.7333 82.5333 52 85.4C51.0667 86.9333 49.9333 88.6667 48.6 90.6C47.3333 92.6 46.0667 94.5667 44.8 96.5C43.6 98.4333 42.5333 100.1 41.6 101.5C41.1333 102.233 40.6333 103 40.1 103.8C39.5667 104.6 39.0333 105.367 38.5 106.1C37.9667 106.833 37.4333 107.567 36.9 108.3C36.3667 109.1 35.8667 109.867 35.4 110.6C34.4 112.2 33.4 113.4 32.4 114.2C31.4 115.067 30.3333 115.867 29.2 116.6C28.0667 117.333 26.7667 118.367 25.3 119.7C24.5 119.767 23.5333 120.033 22.4 120.5C21.2667 120.833 20.2 121 19.2 121C19.0667 121.133 18.6667 121.367 18 121.7C17.4 122.033 16.8 122.333 16.2 122.6C15.6 122.867 15.1667 122.967 14.9 122.9C13.8333 123.1 12.7 123.2 11.5 123.2ZM12.4 120.6C12.8 120.6 13.4667 120.533 14.4 120.4C15.4 120.267 16.4 120.067 17.4 119.8C18.4 119.6 19.0667 119.433 19.4 119.3C19.7333 119.1 20.3333 118.633 21.2 117.9C22.1333 117.167 23.0667 116.367 24 115.5C24.9333 114.633 25.6 114 26 113.6C26.4 113.267 26.9333 112.633 27.6 111.7C28.2667 110.833 28.7667 110.167 29.1 109.7C30.1667 108.367 31.4 106.8 32.8 105C34.2667 103.267 35.6667 101.433 37 99.5C38.4 97.6333 39.6 95.8333 40.6 94.1C41.6 92.3667 42.1667 90.8667 42.3 89.6L44 87.9H44.1C44.6333 86.9667 45.1 86.0333 45.5 85.1C45.9 84.1667 46.3667 83.2333 46.9 82.3C47.1667 81.7 47.5667 81.0667 48.1 80.4C48.3 80.0667 48.5 79.7333 48.7 79.4C48.9 79.1333 49.1 78.8333 49.3 78.5C49.5 78.1 49.8667 77.4333 50.4 76.5C50.9333 75.5667 51.4 74.6333 51.8 73.7C52.2667 72.7667 52.5 72.1667 52.5 71.9V71.7C52.7667 71.1 53 70.4333 53.2 69.7C53.3333 69.3667 53.4333 69.0667 53.5 68.8C53.6333 68.4667 53.7667 68.1333 53.9 67.8C52.4333 68.4 51 69.0333 49.6 69.7C48.2 70.3 46.8333 70.9333 45.5 71.6C45.2333 71.7333 44.9667 71.8667 44.7 72C44.5 72.0667 44.2667 72.1667 44 72.3C43.4 72.5667 42.9 72.8667 42.5 73.2C41.8333 73.6667 41.2 74.1333 40.6 74.6C40 75.0667 39.4 75.5667 38.8 76.1C38.2 76.5667 37.6 77.0333 37 77.5C36.4 77.9667 35.7667 78.4333 35.1 78.9L33.1 80.4C33.0333 80.4667 32.8667 80.6 32.6 80.8C32.4 81 32.2667 81.1 32.2 81.1L32.3 81L24.8 87.7H24.7C22.3 90.1 20.2 92.6333 18.4 95.3C17.9333 95.9667 17.5 96.6333 17.1 97.3C16.7667 98.0333 16.4333 98.7667 16.1 99.5C15.7667 100.167 15.3667 100.833 14.9 101.5C14.5 102.233 14.0667 102.933 13.6 103.6C13.2667 104.133 12.9 104.667 12.5 105.2C12.1667 105.733 11.7667 106.233 11.3 106.7C11.0333 107.5 10.6667 108.5 10.2 109.7C9.73333 110.9 9.3 112.033 8.9 113.1C8.56667 114.233 8.4 115.167 8.4 115.9C8.4 117.233 8.7 118.333 9.3 119.2C9.9 120.133 10.9333 120.6 12.4 120.6ZM88.2758 47.1C87.2758 46.7 86.4091 46.0667 85.6758 45.2C85.0091 44.2667 84.7758 43.2667 84.9758 42.2C85.1091 41.6 85.2758 41.2333 85.4758 41.1C85.7424 40.9 86.4424 40.7667 87.5758 40.7L92.8758 39.8C93.4758 39.6667 93.7758 39.6667 93.7758 39.8C93.7758 40.0667 93.5424 40.2667 93.0758 40.4C92.0091 40.6667 91.0758 41.0667 90.2758 41.6C89.4758 42.1333 88.8091 42.8667 88.2758 43.8C88.1424 44 88.0758 44.3 88.0758 44.7C88.0758 45.1 88.1424 45.5 88.2758 45.9C88.4758 46.2333 88.6758 46.5333 88.8758 46.8C89.0758 47.0667 89.0758 47.2 88.8758 47.2C88.7424 47.2 88.5424 47.1667 88.2758 47.1ZM76.5758 77.4C74.3091 77.4 72.7091 76.7 71.7758 75.3C70.9091 73.8333 70.4758 72.1 70.4758 70.1C70.4758 68.5667 70.6758 67 71.0758 65.4C71.5424 63.8 72.1091 62.3667 72.7758 61.1C72.1758 60.8333 71.9758 60.6 72.1758 60.4C72.6424 59.7333 73.2091 58.9 73.8758 57.9C74.6091 56.9 75.3424 55.9 76.0758 54.9C76.9424 53.7667 77.7091 52.8333 78.3758 52.1C79.1091 51.3667 79.8758 51 80.6758 51C81.2091 51 81.6758 51.1667 82.0758 51.5C82.5424 51.8333 83.0091 52.1667 83.4758 52.5C81.9424 54.1 80.4091 56.0667 78.8758 58.4C77.3424 60.7333 76.0758 63.2 75.0758 65.8C74.1424 68.3333 73.6758 70.8333 73.6758 73.3C73.6758 74.3667 73.9091 75.1333 74.3758 75.6C74.9091 76 75.5424 76.2 76.2758 76.2C77.8091 76.2 79.1758 75.6667 80.3758 74.6C81.6424 73.4667 83.1091 71.8333 84.7758 69.7C86.5091 67.5 88.1424 65.2 89.6758 62.8C90.0758 62.2667 90.3758 61.9667 90.5758 61.9C90.8424 61.8333 90.8758 61.9667 90.6758 62.3C90.1424 63.3667 89.3091 64.7333 88.1758 66.4C87.1091 68 85.9758 69.6 84.7758 71.2C83.5758 72.8 82.5424 74.0333 81.6758 74.9C80.8091 75.7667 79.9091 76.4 78.9758 76.8C78.1091 77.2 77.3091 77.4 76.5758 77.4ZM103.261 77.3C101.528 77.3 100.294 76.8 99.5609 75.8C98.8943 74.7333 98.5609 73.5 98.5609 72.1C98.5609 70.5 98.7943 68.9 99.2609 67.3C99.7943 65.6333 100.361 64.1333 100.961 62.8C101.628 61.4 102.161 60.3333 102.561 59.6C103.694 57.4667 104.261 56.0667 104.261 55.4C104.261 54.6667 103.928 54.4333 103.261 54.7C102.728 54.9 101.994 55.4667 101.061 56.4C100.128 57.3333 99.1609 58.4 98.1609 59.6C97.1609 60.8 96.2609 61.9 95.4609 62.9C94.7276 63.9 94.2609 64.5667 94.0609 64.9C92.1943 67.5667 90.8943 69.7667 90.1609 71.5C89.4276 73.2333 88.8943 74.5 88.5609 75.3C88.4276 75.6333 88.0609 75.8 87.4609 75.8C86.8609 75.8 86.2609 75.5667 85.6609 75.1C85.0609 74.5667 84.7609 73.8 84.7609 72.8C84.7609 72.2667 85.0609 71.3333 85.6609 70C86.2609 68.6 86.9943 66.9667 87.8609 65.1C88.6609 63.3 89.4609 61.5 90.2609 59.7C91.0609 57.8333 91.6943 56.3667 92.1609 55.3C91.6943 54.9 91.4609 54.6 91.4609 54.4C91.4609 54.2 91.4943 54.0333 91.5609 53.9C91.6943 53.5667 91.9609 53.0333 92.3609 52.3C92.7609 51.5 93.1609 50.7333 93.5609 50C93.9609 49.2 94.2276 48.7 94.3609 48.5C94.5609 48.3667 95.0609 48.1333 95.8609 47.8C96.7276 47.4667 97.5609 47.3 98.3609 47.3H98.7609C99.5609 47.3 99.9609 47.5333 99.9609 48C99.9609 48.4667 99.7276 49.0667 99.2609 49.8C99.0609 50.1333 98.5943 51 97.8609 52.4C97.1276 53.7333 96.2943 55.2667 95.3609 57C94.4276 58.7333 93.5609 60.4 92.7609 62C92.0276 63.5333 91.4943 64.7 91.1609 65.5C90.9609 66.1 90.8609 66.7 90.8609 67.3C90.9276 67.8333 91.0943 67.9 91.3609 67.5C93.2276 64.7 94.9609 62.3 96.5609 60.3C98.1609 58.3 99.7609 56.4333 101.361 54.7C102.961 52.9667 104.728 51.1667 106.661 49.3C107.328 49.5667 108.028 49.7 108.761 49.7C109.494 49.7 110.128 49.9 110.661 50.3C110.928 50.5 111.061 50.8333 111.061 51.3C111.061 52.2333 110.494 53.6333 109.361 55.5C108.294 57.3 107.094 59.3333 105.761 61.6C104.761 63.3333 103.761 65.3333 102.761 67.6C101.761 69.8667 101.261 71.8333 101.261 73.5C101.261 74.3667 101.394 75.1 101.661 75.7C101.994 76.2333 102.494 76.5 103.161 76.5C103.761 76.5 104.428 76.2667 105.161 75.8C105.694 75.4667 106.861 74.3667 108.661 72.5C110.461 70.5667 112.428 67.9667 114.561 64.7C114.761 64.5 114.894 64.4 114.961 64.4C115.094 64.4 115.161 64.4667 115.161 64.6C115.161 64.7333 115.061 65 114.861 65.4C112.661 69.1333 110.461 72.0667 108.261 74.2C106.128 76.2667 104.461 77.3 103.261 77.3ZM127.798 77.5C124.864 77.5 122.198 76.8 119.798 75.4C117.464 74 116.298 71.8667 116.298 69C116.298 68.0667 116.464 67 116.798 65.8C117.198 64.4 117.798 63.4 118.598 62.8C119.064 62.3333 119.264 62.2333 119.198 62.5C119.198 62.7 119.131 62.8667 118.998 63C118.331 63.7333 117.998 64.7667 117.998 66.1C117.998 68.8333 119.064 70.7667 121.198 71.9C123.331 73.0333 125.731 73.6 128.398 73.6C131.998 73.6 134.964 72.9333 137.298 71.6C141.298 69.3333 143.298 66.8667 143.298 64.2C143.298 63.6 143.131 62.9667 142.798 62.3C142.464 61.6333 141.998 61 141.398 60.4C140.798 59.7333 140.131 59.0667 139.398 58.4C137.464 56.6667 135.431 55.0333 133.298 53.5C131.164 51.9667 129.231 50.2333 127.498 48.3C126.431 47.1 125.564 45.8 124.898 44.4C124.298 42.9333 123.998 41.3333 123.998 39.6C123.998 36.8 124.631 34.0333 125.898 31.3C127.231 28.5667 128.998 26 131.198 23.6C133.464 21.2 135.964 19.1 138.698 17.3C141.431 15.4333 144.231 14 147.098 13C149.964 11.9333 152.698 11.4 155.298 11.4C156.698 11.4 158.264 11.6 159.998 12C161.731 12.3333 163.131 12.8667 164.198 13.6C165.731 14.7333 166.498 16.2 166.498 18C166.498 19.2667 166.098 20.5 165.298 21.7C164.498 22.9 163.464 23.8 162.198 24.4C162.198 24.4 162.098 24.3667 161.898 24.3C161.764 24.1667 161.831 24.0333 162.098 23.9C162.831 23.5 163.464 22.9 163.998 22.1C164.598 21.3 164.898 20.4667 164.898 19.6C164.898 18.9333 164.731 18.4 164.398 18C163.731 17.0667 162.564 16.3 160.898 15.7C159.298 15.1 157.831 14.8 156.498 14.8C153.298 14.8 150.098 15.5333 146.898 17C143.698 18.4667 140.764 20.4333 138.098 22.9C135.431 25.3667 133.264 28.1667 131.598 31.3C129.998 34.4333 129.198 37.6667 129.198 41C129.198 43.1333 129.598 44.9667 130.398 46.5C131.198 47.9667 132.231 49.2667 133.498 50.4C134.764 51.5333 136.098 52.6333 137.498 53.7C138.964 54.7667 140.298 55.9333 141.498 57.2C142.364 58.0667 143.031 59.0667 143.498 60.2C144.031 61.2667 144.298 62.5333 144.298 64C144.298 66.4 143.531 68.6 141.998 70.6C140.531 72.5333 138.731 74.1 136.598 75.3C133.864 76.7667 130.931 77.5 127.798 77.5ZM178.266 83.8C176.466 83.8 175.266 83.2333 174.666 82.1C174.066 81.0333 173.766 79.9667 173.766 78.9C173.766 77.1667 174.099 75.3667 174.766 73.5C175.499 71.5667 176.299 69.6667 177.166 67.8C178.699 64.6667 179.899 62.3 180.766 60.7C181.632 59.1 182.232 57.9 182.566 57.1C182.966 56.3 183.166 55.5667 183.166 54.9C183.166 54.2333 182.999 53.8 182.666 53.6C182.332 53.4 181.999 53.3 181.666 53.3C181.199 53.3 180.666 53.5 180.066 53.9C179.466 54.2333 178.899 54.6667 178.366 55.2C177.232 56.4 175.999 57.9333 174.666 59.8C173.332 61.6 172.032 63.5 170.766 65.5C169.566 67.4333 168.499 69.2 167.566 70.8C166.699 72.4 166.099 73.5333 165.766 74.2C165.166 75.4 164.466 76 163.666 76C162.732 76 161.766 75.3333 160.766 74C161.232 72.9333 161.766 71.7333 162.366 70.4C162.966 69 163.566 67.5667 164.166 66.1C164.899 64.3667 165.566 62.4667 166.166 60.4C166.832 58.3333 167.166 56.6 167.166 55.2C167.166 53.8 166.799 53.1 166.066 53.1C165.466 53.1 164.666 53.6 163.666 54.6C162.732 55.4667 161.566 56.8 160.166 58.6C158.832 60.3333 157.466 62.2667 156.066 64.4C154.666 66.5333 153.432 68.6 152.366 70.6C151.366 72.5333 150.732 74.1333 150.466 75.4C150.332 75.7333 150.032 75.9 149.566 75.9C148.966 75.9 148.332 75.6333 147.666 75.1C146.999 74.5667 146.699 73.7 146.766 72.5C146.766 72.3 147.032 71.5667 147.566 70.3C148.099 68.9667 148.732 67.4333 149.466 65.7C150.266 63.9667 151.032 62.2667 151.766 60.6C152.499 58.9333 153.099 57.6 153.566 56.6C153.099 56.2 152.832 55.9 152.766 55.7C152.766 55.5 152.799 55.3 152.866 55.1C153.066 54.8333 153.366 54.3333 153.766 53.6C154.166 52.8 154.566 52.0333 154.966 51.3C155.366 50.5 155.599 49.9667 155.666 49.7C155.932 49.5667 156.466 49.3667 157.266 49.1C158.132 48.7667 158.966 48.6 159.766 48.6H160.166C160.966 48.6 161.366 48.8333 161.366 49.3C161.366 49.7667 161.132 50.3667 160.666 51.1C160.466 51.4333 160.032 52.2333 159.366 53.5C158.699 54.7 157.932 56.1 157.066 57.7C156.199 59.3 155.399 60.8333 154.666 62.3C153.999 63.7 153.499 64.8 153.166 65.6C152.832 66.3333 152.732 67.1 152.866 67.9C154.199 65.7 155.799 63.2667 157.666 60.6C159.532 57.8667 161.499 55.4333 163.566 53.3C164.366 52.3667 165.232 51.9 166.166 51.9C168.032 51.9 169.366 52.3333 170.166 53.2C171.032 54.0667 171.466 55.0333 171.466 56.1C171.466 57.3667 171.099 58.8333 170.366 60.5C170.099 61.1667 169.632 62.3667 168.966 64.1C168.299 65.7667 167.632 67.4 166.966 69C167.966 67.6 169.199 65.8333 170.666 63.7C172.199 61.5667 173.766 59.4667 175.366 57.4C177.032 55.2667 178.532 53.5 179.866 52.1C181.199 50.7 182.166 50 182.766 50C184.232 50 185.532 50.5333 186.666 51.6C187.866 52.6 188.466 53.4667 188.466 54.2C188.466 55.2667 187.966 56.6667 186.966 58.4C185.966 60.1333 184.299 62.8667 181.966 66.6C180.632 68.7333 179.299 71.1333 177.966 73.8C176.699 76.4 176.066 78.6667 176.066 80.6C176.066 82.3333 176.566 83.2 177.566 83.2C178.166 83.2 178.799 82.9 179.466 82.3C179.932 81.9 180.399 81.4667 180.866 81C181.332 80.5333 181.799 80.1333 182.266 79.8C181.732 81 181.166 81.9667 180.566 82.7C179.966 83.4333 179.199 83.8 178.266 83.8ZM209.663 47.1C208.663 46.7 207.796 46.0667 207.063 45.2C206.396 44.2667 206.163 43.2667 206.363 42.2C206.496 41.6 206.663 41.2333 206.863 41.1C207.129 40.9 207.829 40.7667 208.963 40.7L214.263 39.8C214.863 39.6667 215.163 39.6667 215.163 39.8C215.163 40.0667 214.929 40.2667 214.463 40.4C213.396 40.6667 212.463 41.0667 211.663 41.6C210.863 42.1333 210.196 42.8667 209.663 43.8C209.529 44 209.463 44.3 209.463 44.7C209.463 45.1 209.529 45.5 209.663 45.9C209.863 46.2333 210.063 46.5333 210.263 46.8C210.463 47.0667 210.463 47.2 210.263 47.2C210.129 47.2 209.929 47.1667 209.663 47.1ZM197.963 77.4C195.696 77.4 194.096 76.7 193.163 75.3C192.296 73.8333 191.863 72.1 191.863 70.1C191.863 68.5667 192.063 67 192.463 65.4C192.929 63.8 193.496 62.3667 194.163 61.1C193.563 60.8333 193.363 60.6 193.563 60.4C194.029 59.7333 194.596 58.9 195.263 57.9C195.996 56.9 196.729 55.9 197.463 54.9C198.329 53.7667 199.096 52.8333 199.763 52.1C200.496 51.3667 201.263 51 202.063 51C202.596 51 203.063 51.1667 203.463 51.5C203.929 51.8333 204.396 52.1667 204.863 52.5C203.329 54.1 201.796 56.0667 200.262 58.4C198.729 60.7333 197.463 63.2 196.463 65.8C195.529 68.3333 195.063 70.8333 195.063 73.3C195.063 74.3667 195.296 75.1333 195.763 75.6C196.296 76 196.929 76.2 197.663 76.2C199.196 76.2 200.563 75.6667 201.762 74.6C203.029 73.4667 204.496 71.8333 206.163 69.7C207.896 67.5 209.529 65.2 211.063 62.8C211.463 62.2667 211.763 61.9667 211.963 61.9C212.229 61.8333 212.263 61.9667 212.062 62.3C211.529 63.3667 210.696 64.7333 209.563 66.4C208.496 68 207.363 69.6 206.163 71.2C204.963 72.8 203.929 74.0333 203.063 74.9C202.196 75.7667 201.296 76.4 200.363 76.8C199.496 77.2 198.696 77.4 197.963 77.4ZM213.748 77.5C212.348 77.5 211.114 76.9333 210.048 75.8C209.048 74.6667 208.548 73.0333 208.548 70.9C208.548 69.3 208.914 67.3667 209.648 65.1C210.448 62.7667 211.414 60.3333 212.548 57.8C213.748 55.2 214.981 52.7667 216.248 50.5C217.581 48.1667 218.748 46.2 219.748 44.6C218.614 44.6 217.614 44.6 216.748 44.6C215.881 44.5333 215.181 44.5333 214.648 44.6C214.181 44.6 213.881 44.5333 213.748 44.4C213.681 44.2 213.681 44.0667 213.748 44C213.748 43.8 213.848 43.5333 214.048 43.2C214.314 42.8667 214.548 42.7 214.748 42.7H220.848C221.181 42.3 221.614 41.6 222.148 40.6C222.748 39.6 223.348 38.5333 223.948 37.4C224.548 36.2667 225.048 35.2667 225.448 34.4C225.914 33.4667 226.148 32.9 226.148 32.7C226.148 32.1 225.948 31.6667 225.548 31.4C225.281 31.2667 225.148 31.2 225.148 31.2C225.081 31.2 225.048 31.2 225.048 31.2C225.048 31.1333 225.014 31.1 224.948 31.1C224.881 31.0333 224.848 30.9333 224.848 30.8C224.848 30.6 224.948 30.4667 225.148 30.4C225.348 30.2667 225.514 30.2 225.648 30.2C226.048 30.2 226.414 30.3 226.748 30.5C227.148 30.6333 227.781 30.9333 228.648 31.4C229.048 31.6 229.448 31.8 229.848 32C230.314 32.1333 230.681 32.3 230.948 32.5L231.748 33C231.348 33.6667 230.714 34.6 229.848 35.8C229.048 37 228.248 38.2333 227.448 39.5C226.648 40.7667 225.981 41.8333 225.448 42.7H243.348C244.148 42.7 244.548 42.8 244.548 43C244.548 43.2 244.248 43.4333 243.648 43.7C243.114 43.9 242.714 44 242.448 44C241.581 44.0667 240.348 44.1 238.748 44.1C237.214 44.1 235.548 44.1333 233.748 44.2C232.014 44.2 230.381 44.2667 228.848 44.4C227.381 44.4667 226.348 44.6 225.748 44.8C224.748 45.1333 223.614 46.2333 222.348 48.1C221.081 49.9 219.848 52.0333 218.648 54.5C217.514 56.9667 216.481 59.3667 215.548 61.7C215.348 62.2333 214.981 63.1333 214.448 64.4C213.981 65.6667 213.514 67.0333 213.048 68.5C212.648 69.9667 212.448 71.3333 212.448 72.6C212.448 73.8 212.681 74.6667 213.148 75.2C213.614 75.7333 214.181 76 214.848 76C215.648 76 216.548 75.5333 217.548 74.6C218.614 73.6667 219.781 72.4667 221.048 71C222.381 69.3333 223.614 67.6667 224.748 66C225.948 64.2667 226.714 63.1 227.048 62.5C227.581 61.6333 227.914 61.2 228.048 61.2C228.114 61.2 228.148 61.2333 228.148 61.3C228.148 61.5 228.048 61.8667 227.848 62.4C227.648 62.8667 227.448 63.2667 227.248 63.6C226.048 65.3333 224.748 67.2667 223.348 69.4C221.948 71.5333 220.514 73.3667 219.048 74.9C217.314 76.6333 215.548 77.5 213.748 77.5ZM241.233 83.8C239.433 83.8 238.233 83.2333 237.633 82.1C237.099 81.0333 236.833 80 236.833 79C236.833 77.4 237.266 75.4667 238.133 73.2C238.999 70.9333 239.999 68.6 241.133 66.2C242.333 63.8 243.433 61.7 244.433 59.9C245.233 58.5 245.633 57.4 245.633 56.6C245.633 56.0667 245.433 55.8 245.033 55.8C244.499 55.8 243.566 56.3667 242.233 57.5C240.966 58.6333 239.633 60 238.233 61.6C236.833 63.1333 235.633 64.5667 234.633 65.9C233.633 67.2333 232.666 68.7333 231.733 70.4C230.866 72.0667 230.066 73.4667 229.333 74.6C228.999 75.2 228.599 75.5 228.133 75.5C227.666 75.5 227.199 75.2333 226.733 74.7C226.266 74.1667 226.033 73.2 226.033 71.8C226.033 71.2 226.299 69.8333 226.833 67.7C227.433 65.5 228.233 62.9 229.233 59.9C230.233 56.9 231.366 53.8 232.633 50.6C233.966 47.4 235.366 44.4 236.833 41.6C238.766 38.0667 240.866 34.6333 243.133 31.3C245.399 27.9 247.666 24.8333 249.933 22.1C252.199 19.3667 254.333 17.2 256.333 15.6C258.333 14 259.966 13.2 261.233 13.2C262.366 13.2 263.099 13.4667 263.433 14C263.766 14.4667 264.033 15.0333 264.233 15.7C264.499 16.3 264.999 16.8333 265.733 17.3C265.466 18.9667 264.633 21.0667 263.233 23.6C261.899 26.1333 259.933 28.8 257.333 31.6C253.733 35.4667 250.099 39.7 246.433 44.3C242.766 48.8333 239.466 53.3 236.533 57.7C236.266 58.0333 235.999 58.2 235.733 58.2C235.533 58.2 235.566 58 235.833 57.6C238.099 53.6 240.633 49.8 243.433 46.2C246.299 42.6 249.199 39.0333 252.133 35.5C255.133 31.9 257.933 28.2333 260.533 24.5C261.333 23.3667 261.899 22.4333 262.233 21.7C262.566 20.9 262.733 20.2667 262.733 19.8C262.733 19.0667 262.366 18.7 261.633 18.7C260.099 18.7 258.266 19.8333 256.133 22.1C253.999 24.4333 251.666 27.2333 249.133 30.5C246.666 33.7667 244.466 36.8667 242.533 39.8C241.466 41.4 240.233 43.4667 238.833 46C237.499 48.4667 236.166 51.0667 234.833 53.8C233.566 56.4667 232.499 58.9333 231.633 61.2C230.833 63.4667 230.433 65.1667 230.433 66.3C230.433 66.9 230.666 67.2 231.133 67.2C231.399 67.2 231.666 67.1 231.933 66.9C232.199 66.7 232.466 66.4667 232.733 66.2C234.333 64.6 236.033 62.8333 237.833 60.9C239.699 58.9667 241.566 57.0333 243.433 55.1C245.299 53.1 246.999 51.3333 248.533 49.8C249.266 50.0667 249.899 50.2 250.433 50.2C251.033 50.2 251.699 50.3667 252.433 50.7C253.099 50.9667 253.433 51.5 253.433 52.3C253.433 52.7667 253.299 53.3333 253.033 54C252.766 54.6667 252.433 55.3667 252.033 56.1C250.566 58.5667 248.966 60.9667 247.233 63.3C245.499 65.5667 243.899 67.9333 242.433 70.4C241.033 72.8 239.999 75.4667 239.333 78.4C239.266 78.7333 239.199 79.1 239.133 79.5C239.133 79.9 239.133 80.2667 239.133 80.6C239.133 82.3333 239.633 83.2 240.633 83.2C241.233 83.2 241.866 82.9 242.533 82.3L245.333 79.8C244.799 81 244.199 81.9667 243.533 82.7C242.933 83.4333 242.166 83.8 241.233 83.8ZM296.855 78.4C295.188 78.4 293.621 78.2667 292.155 78C290.688 77.8 289.388 77.4333 288.255 76.9C286.588 76.1 285.121 74.9667 283.855 73.5C282.588 72.0333 281.588 70.4333 280.855 68.7C280.255 67.1667 279.955 65.7667 279.955 64.5C279.955 62.2333 280.588 60.3 281.855 58.7C283.188 57.0333 284.788 55.6333 286.655 54.5C288.588 53.3 290.421 52.3667 292.155 51.7C292.888 51.3667 293.221 51.3333 293.155 51.6C293.155 51.8667 292.988 52.0667 292.655 52.2C290.988 52.9333 289.355 54.1333 287.755 55.8C286.155 57.4667 284.855 59.3333 283.855 61.4C282.855 63.4667 282.355 65.5 282.355 67.5C282.355 69.8333 283.255 71.8333 285.055 73.5C286.921 75.1667 290.088 76 294.555 76C296.755 76 299.088 75.7333 301.555 75.2C304.088 74.6 306.555 73.9 308.955 73.1C311.421 72.2333 313.655 71.4 315.655 70.6C316.588 70.2 317.921 69.5667 319.655 68.7C321.455 67.7667 323.355 66.7 325.355 65.5C327.421 64.2333 329.388 62.9 331.255 61.5C333.188 60.1 334.755 58.7 335.955 57.3C337.155 55.9 337.755 54.6 337.755 53.4C337.755 52.2667 337.055 51.4 335.655 50.8C334.321 50.1333 332.621 49.6667 330.555 49.4C328.555 49.1333 326.555 49 324.555 49C321.621 49 319.488 49.1667 318.155 49.5C317.088 49.7667 315.921 50.3667 314.655 51.3C313.388 52.1667 312.221 52.6 311.155 52.6C310.488 52.6 309.921 52.3667 309.455 51.9C309.055 51.4333 308.855 50.9 308.855 50.3C308.855 49.7667 309.055 49.2667 309.455 48.8C309.921 48.2667 310.688 47.9 311.755 47.7C312.421 47.5667 313.121 47.5 313.855 47.5C314.655 47.4333 315.455 47.3667 316.255 47.3C317.055 47.2333 317.821 47.1667 318.555 47.1C319.355 46.9667 320.088 46.7667 320.755 46.5C323.355 45.5667 325.988 44.4667 328.655 43.2C331.321 41.8667 333.821 40.3 336.155 38.5C338.488 36.6333 340.421 34.4667 341.955 32C342.755 30.6 343.155 29.2333 343.155 27.9C343.155 26.2333 342.455 24.9 341.055 23.9C339.655 22.8333 337.855 22.0333 335.655 21.5C333.455 20.9 331.121 20.5 328.655 20.3C327.321 21.3667 326.455 22.1667 326.055 22.7C324.455 24.4333 322.488 26.6333 320.155 29.3C317.821 31.9 315.388 34.8 312.855 38C310.321 41.1333 307.955 44.3667 305.755 47.7C303.555 50.9667 301.755 54.2 300.355 57.4C298.955 60.6 298.255 63.5333 298.255 66.2C298.255 67.4 298.455 68.5333 298.855 69.6C299.255 70.6667 300.188 71.2667 301.655 71.4C301.921 71.4 301.988 71.5 301.855 71.7C301.788 71.8333 301.588 71.9 301.255 71.9C299.788 71.9 298.488 71.1667 297.355 69.7C296.221 68.2333 295.655 66.3667 295.655 64.1C295.655 61.9 296.221 59.3333 297.355 56.4C298.555 53.4667 300.121 50.3667 302.055 47.1C303.988 43.8333 306.121 40.5667 308.455 37.3C310.855 33.9667 313.288 30.8 315.755 27.8C318.221 24.8 320.521 22.1667 322.655 19.9C320.921 19.8333 318.855 19.8667 316.455 20C314.055 20.0667 311.621 20.1667 309.155 20.3C306.755 20.4333 304.588 20.6 302.655 20.8C300.788 20.9333 299.488 21.0667 298.755 21.2C290.888 22.6667 284.788 24.4333 280.455 26.5C276.188 28.5 274.055 30.5667 274.055 32.7C274.055 33.1 274.088 33.4 274.155 33.6C274.288 33.9333 274.521 34.3333 274.855 34.8C275.255 35.2 275.588 35.5 275.855 35.7C275.921 35.7667 275.955 35.8667 275.955 36C275.955 36.1333 275.888 36.2667 275.755 36.4C275.621 36.5333 275.455 36.5667 275.255 36.5C273.655 35.6333 272.388 34.4333 271.455 32.9C270.588 31.3667 270.155 30.2 270.155 29.4C270.155 27.7333 271.455 26.2 274.055 24.8C276.655 23.4 280.021 22.1667 284.155 21.1C288.288 20.0333 292.655 19.2333 297.255 18.7C299.721 18.3667 302.521 18.1 305.655 17.9C308.855 17.7 312.155 17.6 315.555 17.6C318.421 17.6 321.188 17.7 323.855 17.9L324.655 17.1C324.188 16.6333 323.955 16.2 323.955 15.8C323.955 15.4 324.121 15.0333 324.455 14.7C324.788 14.3 325.188 13.8667 325.655 13.4C326.388 12.7333 327.288 12.0667 328.355 11.4C329.421 10.7333 330.221 10.1 330.755 9.5C331.688 9.56666 332.688 9.83333 333.755 10.3C334.888 10.7 335.455 11.4333 335.455 12.5C335.455 12.6333 335.421 12.8 335.355 13C335.355 13.1333 335.321 13.3 335.255 13.5C335.121 13.9667 334.621 14.6333 333.755 15.5C332.955 16.3667 331.888 17.4 330.555 18.6C332.421 19 334.355 19.5 336.355 20.1C338.421 20.7 340.221 21.6 341.755 22.8C343.288 23.9333 344.188 25.5667 344.455 27.7C345.521 29.1667 346.055 30.6 346.055 32C346.055 34 345.221 35.8667 343.555 37.6C341.888 39.3333 339.821 40.8667 337.355 42.2C334.955 43.4667 332.521 44.5 330.055 45.3C327.655 46.1 325.688 46.5667 324.155 46.7C323.888 46.7667 323.755 46.8667 323.755 47C323.821 47.1333 324.055 47.2 324.455 47.2C326.188 47.2 328.155 47.4 330.355 47.8C332.555 48.1333 334.488 48.6667 336.155 49.4C337.888 50.1333 338.788 51.0667 338.855 52.2V52.3C338.855 52.6333 338.988 52.9667 339.255 53.3C339.521 53.5667 339.755 53.8333 339.955 54.1C340.821 54.9667 341.255 55.8 341.255 56.6C341.255 57.2 341.088 57.7667 340.755 58.3C338.888 61.3667 335.955 64.3667 331.955 67.3C328.021 70.1667 323.588 72.5 318.655 74.3C316.988 74.9 314.921 75.5 312.455 76.1C309.988 76.7667 307.388 77.3 304.655 77.7C301.988 78.1667 299.388 78.4 296.855 78.4ZM350.197 77.5C348.264 77.5 346.597 76.7667 345.197 75.3C343.864 73.8333 343.197 71.8333 343.197 69.3C343.197 68.3667 343.297 67.3667 343.497 66.3C343.764 65.1667 344.13 64 344.597 62.8C345.597 60.4667 346.964 58.2333 348.697 56.1C350.497 53.9667 352.43 52.2 354.497 50.8C356.564 49.4 358.53 48.7 360.397 48.7C360.597 48.7 360.83 48.8 361.097 49C361.364 49.1333 361.564 49.2667 361.697 49.4L362.197 49.9C362.997 50.7 363.764 51.1667 364.497 51.3C365.297 51.4333 365.93 51.8333 366.397 52.5C367.197 53.7667 367.597 55.3 367.597 57.1C367.597 59.5667 366.83 62.2667 365.297 65.2C363.83 68.0667 361.83 70.6667 359.297 73C358.03 74.1333 356.63 75.1667 355.097 76.1C353.564 77.0333 351.93 77.5 350.197 77.5ZM350.897 76.4C352.497 76.4 354.13 75.8667 355.797 74.8C357.464 73.6667 358.997 72.2 360.397 70.4C361.864 68.6 363.097 66.7 364.097 64.7C365.164 62.7 365.83 60.8 366.097 59C366.164 58.6667 366.197 58.3333 366.197 58C366.264 57.6 366.297 57.2667 366.297 57C366.297 55.2 365.864 53.9 364.997 53.1C364.13 52.2333 363.097 51.8 361.897 51.8C360.63 51.8 359.33 52.2 357.997 53C356.73 53.7333 355.13 55.2667 353.197 57.6C351.264 59.8667 349.53 62.2333 347.997 64.7C346.597 66.9 345.897 69.0333 345.897 71.1C345.897 72.5667 346.297 73.8333 347.097 74.9C347.964 75.9 349.23 76.4 350.897 76.4ZM376.369 77.5C374.435 77.5 372.769 76.7667 371.369 75.3C370.035 73.8333 369.369 71.8333 369.369 69.3C369.369 68.3667 369.469 67.3667 369.669 66.3C369.935 65.1667 370.302 64 370.769 62.8C371.769 60.4667 373.135 58.2333 374.869 56.1C376.669 53.9667 378.602 52.2 380.669 50.8C382.735 49.4 384.702 48.7 386.569 48.7C386.769 48.7 387.002 48.8 387.269 49C387.535 49.1333 387.735 49.2667 387.869 49.4L388.369 49.9C389.169 50.7 389.935 51.1667 390.669 51.3C391.469 51.4333 392.102 51.8333 392.569 52.5C393.369 53.7667 393.769 55.3 393.769 57.1C393.769 59.5667 393.002 62.2667 391.469 65.2C390.002 68.0667 388.002 70.6667 385.469 73C384.202 74.1333 382.802 75.1667 381.269 76.1C379.735 77.0333 378.102 77.5 376.369 77.5ZM377.069 76.4C378.669 76.4 380.302 75.8667 381.969 74.8C383.635 73.6667 385.169 72.2 386.569 70.4C388.035 68.6 389.269 66.7 390.269 64.7C391.335 62.7 392.002 60.8 392.269 59C392.335 58.6667 392.369 58.3333 392.369 58C392.435 57.6 392.469 57.2667 392.469 57C392.469 55.2 392.035 53.9 391.169 53.1C390.302 52.2333 389.269 51.8 388.069 51.8C386.802 51.8 385.502 52.2 384.169 53C382.902 53.7333 381.302 55.2667 379.369 57.6C377.435 59.8667 375.702 62.2333 374.169 64.7C372.769 66.9 372.069 69.0333 372.069 71.1C372.069 72.5667 372.469 73.8333 373.269 74.9C374.135 75.9 375.402 76.4 377.069 76.4ZM412.441 76.5C410.441 76.5 408.807 75.2667 407.541 72.8C406.807 71.4 406.207 69.9 405.741 68.3C405.274 66.6333 404.907 65.0667 404.641 63.6C404.374 62.1333 404.174 61 404.041 60.2C399.974 67.1333 397.941 72.3 397.941 75.7C397.941 75.9667 397.807 76.1 397.541 76.1C397.341 76.1 397.041 75.9667 396.641 75.7C396.174 75.4333 395.741 75.1 395.341 74.7C394.941 74.2333 394.741 73.8 394.741 73.4C394.941 69.7333 395.741 65.6333 397.141 61.1C398.607 56.5667 400.407 51.9667 402.541 47.3C404.674 42.5667 406.941 38.2 409.341 34.2C411.741 30.1333 414.041 26.7667 416.241 24.1C420.574 18.9667 424.641 15.3333 428.441 13.2C432.307 11 436.307 9.9 440.441 9.9C441.441 9.9 442.541 9.96666 443.741 10.1C444.941 10.2333 445.974 10.5667 446.841 11.1C447.174 11.3667 447.241 11.5667 447.041 11.7C446.841 11.8333 446.674 11.8667 446.541 11.8C445.874 11.4667 445.074 11.2333 444.141 11.1C443.274 10.9667 442.374 10.9 441.441 10.9C438.374 10.9 435.141 12.2333 431.741 14.9C428.407 17.5 425.007 20.7667 421.541 24.7C418.207 28.5 415.141 32.6667 412.341 37.2C409.541 41.6667 407.041 46.1667 404.841 50.7C402.641 55.1667 400.807 59.3667 399.341 63.3C398.941 64.3 398.741 65.1333 398.741 65.8C398.741 66.2667 398.841 66.5 399.041 66.5C399.374 66.5 399.874 65.8333 400.541 64.5C401.007 63.5667 401.607 62.4333 402.341 61.1C403.141 59.7667 403.874 58.5667 404.541 57.5C406.607 54.1667 408.674 51.3667 410.741 49.1C412.874 46.8333 414.807 45.4667 416.541 45C417.074 45.4 417.674 45.7333 418.341 46C419.074 46.2 419.741 46.5 420.341 46.9C421.007 47.3 421.341 47.9333 421.341 48.8C421.341 50.3333 420.507 52.1333 418.841 54.2C417.374 56.0667 415.607 57.5 413.541 58.5C411.541 59.4333 409.674 60.0667 407.941 60.4C408.074 61.6 408.307 63.1667 408.641 65.1C409.041 66.9667 409.474 68.6667 409.941 70.2C410.474 71.6667 411.074 72.7 411.741 73.3C412.407 73.9 413.074 74.2 413.741 74.2C414.674 74.2 415.574 73.8667 416.441 73.2C417.374 72.4667 418.207 71.6333 418.941 70.7C419.607 69.9 420.241 69.1 420.841 68.3C421.441 67.4333 421.974 66.6333 422.441 65.9L424.441 62.9C424.574 62.7 424.707 62.6 424.841 62.6C425.241 62.6 425.274 62.9 424.941 63.5C424.207 64.6333 423.141 66.2667 421.741 68.4C420.407 70.4667 419.007 72.2667 417.541 73.8C415.941 75.6 414.241 76.5 412.441 76.5ZM405.641 59.7C406.374 59.7 407.307 59.4333 408.441 58.9C409.574 58.3 410.641 57.6333 411.641 56.9C412.707 56.1667 413.407 55.6333 413.741 55.3C414.474 54.5667 415.074 53.7667 415.541 52.9C416.007 52.0333 416.241 51.1667 416.241 50.3C416.241 50.1667 416.241 50 416.241 49.8C416.241 49.6 416.207 49.4333 416.141 49.3C415.941 48.5667 415.474 48.2 414.741 48.2C413.874 48.2 412.874 48.7333 411.741 49.8C410.607 50.8 409.507 52 408.441 53.4C407.374 54.8 406.541 56 405.941 57C405.741 57.4 405.507 57.8 405.241 58.2C405.041 58.5333 404.941 58.8667 404.941 59.2C404.941 59.5333 405.174 59.7 405.641 59.7ZM441.596 47.1C440.596 46.7 439.729 46.0667 438.996 45.2C438.329 44.2667 438.096 43.2667 438.296 42.2C438.429 41.6 438.596 41.2333 438.796 41.1C439.063 40.9 439.763 40.7667 440.896 40.7L446.196 39.8C446.796 39.6667 447.096 39.6667 447.096 39.8C447.096 40.0667 446.863 40.2667 446.396 40.4C445.329 40.6667 444.396 41.0667 443.596 41.6C442.796 42.1333 442.129 42.8667 441.596 43.8C441.463 44 441.396 44.3 441.396 44.7C441.396 45.1 441.463 45.5 441.596 45.9C441.796 46.2333 441.996 46.5333 442.196 46.8C442.396 47.0667 442.396 47.2 442.196 47.2C442.063 47.2 441.863 47.1667 441.596 47.1ZM429.896 77.4C427.629 77.4 426.029 76.7 425.096 75.3C424.229 73.8333 423.796 72.1 423.796 70.1C423.796 68.5667 423.996 67 424.396 65.4C424.863 63.8 425.429 62.3667 426.096 61.1C425.496 60.8333 425.296 60.6 425.496 60.4C425.963 59.7333 426.529 58.9 427.196 57.9C427.929 56.9 428.663 55.9 429.396 54.9C430.263 53.7667 431.029 52.8333 431.696 52.1C432.429 51.3667 433.196 51 433.996 51C434.529 51 434.996 51.1667 435.396 51.5C435.863 51.8333 436.329 52.1667 436.796 52.5C435.263 54.1 433.729 56.0667 432.196 58.4C430.663 60.7333 429.396 63.2 428.396 65.8C427.463 68.3333 426.996 70.8333 426.996 73.3C426.996 74.3667 427.229 75.1333 427.696 75.6C428.229 76 428.863 76.2 429.596 76.2C431.129 76.2 432.496 75.6667 433.696 74.6C434.963 73.4667 436.429 71.8333 438.096 69.7C439.829 67.5 441.463 65.2 442.996 62.8C443.396 62.2667 443.696 61.9667 443.896 61.9C444.163 61.8333 444.196 61.9667 443.996 62.3C443.463 63.3667 442.629 64.7333 441.496 66.4C440.429 68 439.296 69.6 438.096 71.2C436.896 72.8 435.863 74.0333 434.996 74.9C434.129 75.7667 433.229 76.4 432.296 76.8C431.429 77.2 430.629 77.4 429.896 77.4ZM456.581 77.3C454.848 77.3 453.615 76.8 452.881 75.8C452.215 74.7333 451.881 73.5 451.881 72.1C451.881 70.5 452.115 68.9 452.581 67.3C453.115 65.6333 453.681 64.1333 454.281 62.8C454.948 61.4 455.481 60.3333 455.881 59.6C457.015 57.4667 457.581 56.0667 457.581 55.4C457.581 54.6667 457.248 54.4333 456.581 54.7C456.048 54.9 455.315 55.4667 454.381 56.4C453.448 57.3333 452.481 58.4 451.481 59.6C450.481 60.8 449.581 61.9 448.781 62.9C448.048 63.9 447.581 64.5667 447.381 64.9C445.515 67.5667 444.215 69.7667 443.481 71.5C442.748 73.2333 442.215 74.5 441.881 75.3C441.748 75.6333 441.381 75.8 440.781 75.8C440.181 75.8 439.581 75.5667 438.981 75.1C438.381 74.5667 438.081 73.8 438.081 72.8C438.081 72.2667 438.381 71.3333 438.981 70C439.581 68.6 440.315 66.9667 441.181 65.1C441.981 63.3 442.781 61.5 443.581 59.7C444.381 57.8333 445.015 56.3667 445.481 55.3C445.015 54.9 444.781 54.6 444.781 54.4C444.781 54.2 444.815 54.0333 444.881 53.9C445.015 53.5667 445.281 53.0333 445.681 52.3C446.081 51.5 446.481 50.7333 446.881 50C447.281 49.2 447.548 48.7 447.681 48.5C447.881 48.3667 448.381 48.1333 449.181 47.8C450.048 47.4667 450.881 47.3 451.681 47.3H452.081C452.881 47.3 453.281 47.5333 453.281 48C453.281 48.4667 453.048 49.0667 452.581 49.8C452.381 50.1333 451.915 51 451.181 52.4C450.448 53.7333 449.615 55.2667 448.681 57C447.748 58.7333 446.881 60.4 446.081 62C445.348 63.5333 444.815 64.7 444.481 65.5C444.281 66.1 444.181 66.7 444.181 67.3C444.248 67.8333 444.415 67.9 444.681 67.5C446.548 64.7 448.281 62.3 449.881 60.3C451.481 58.3 453.081 56.4333 454.681 54.7C456.281 52.9667 458.048 51.1667 459.981 49.3C460.648 49.5667 461.348 49.7 462.081 49.7C462.815 49.7 463.448 49.9 463.981 50.3C464.248 50.5 464.381 50.8333 464.381 51.3C464.381 52.2333 463.815 53.6333 462.681 55.5C461.615 57.3 460.415 59.3333 459.081 61.6C458.081 63.3333 457.081 65.3333 456.081 67.6C455.081 69.8667 454.581 71.8333 454.581 73.5C454.581 74.3667 454.715 75.1 454.981 75.7C455.315 76.2333 455.815 76.5 456.481 76.5C457.081 76.5 457.748 76.2667 458.481 75.8C459.015 75.4667 460.181 74.3667 461.981 72.5C463.781 70.5667 465.748 67.9667 467.881 64.7C468.081 64.5 468.215 64.4 468.281 64.4C468.415 64.4 468.481 64.4667 468.481 64.6C468.481 64.7333 468.381 65 468.181 65.4C465.981 69.1333 463.781 72.0667 461.581 74.2C459.448 76.2667 457.781 77.3 456.581 77.3ZM452.518 107.5C451.585 107.5 450.551 107.167 449.418 106.5C448.285 105.833 447.351 105 446.618 104C445.818 103.067 445.418 102.1 445.418 101.1C445.418 100.033 446.018 98.7 447.218 97.1C448.418 95.5 449.885 93.8667 451.618 92.2C453.351 90.5333 455.085 89 456.818 87.6C458.485 86.2 459.818 85.1333 460.818 84.4C464.618 81.8 468.618 79.5 472.818 77.5C477.018 75.5667 481.118 73.9667 485.118 72.7C485.651 71.7667 486.185 70.4333 486.718 68.7C487.251 66.9667 487.718 65.2 488.118 63.4C488.518 61.6 488.718 60.1667 488.718 59.1C487.718 60.4333 486.485 61.9333 485.018 63.6C483.618 65.2 482.151 66.7667 480.618 68.3C479.085 69.8333 477.551 71.1 476.018 72.1C474.551 73.1 473.251 73.6 472.118 73.6C470.718 73.6 469.485 73.2333 468.418 72.5C467.351 71.7667 466.818 70.6 466.818 69C466.818 68.2 466.985 67.3 467.318 66.3C467.651 65.3 468.185 64.1667 468.918 62.9C469.718 61.5667 470.851 60.0333 472.318 58.3C473.851 56.5667 475.518 54.9 477.318 53.3C479.185 51.6333 481.051 50.2667 482.918 49.2C484.785 48.0667 486.451 47.5 487.918 47.5C488.785 47.5 489.685 47.8667 490.618 48.6C491.618 49.2667 492.251 50.0333 492.518 50.9C492.785 51.5667 492.885 52.0667 492.818 52.4C492.818 52.6667 492.785 52.8667 492.718 53C492.585 53.1333 492.385 53.0333 492.118 52.7C491.918 52.3667 491.418 52.1 490.618 51.9C489.885 51.7 489.118 51.6 488.318 51.6C487.985 51.6 487.651 51.6333 487.318 51.7C486.985 51.7667 486.651 51.8667 486.318 52C484.918 52.6667 483.385 53.6333 481.718 54.9C480.051 56.1 478.451 57.4667 476.918 59C474.651 61.2667 473.018 63.3333 472.018 65.2C471.085 67 470.618 68.4667 470.618 69.6C470.618 71.4667 471.385 72.4 472.918 72.4C473.851 72.4 474.851 71.9667 475.918 71.1C477.851 69.5667 479.585 68.0667 481.118 66.6C482.651 65.0667 484.018 63.6333 485.218 62.3C486.351 60.9667 487.318 59.7667 488.118 58.7C488.985 57.6333 489.685 56.7333 490.218 56C491.218 56 491.818 56.1667 492.018 56.5C492.285 56.8333 492.418 57.2 492.418 57.6C492.418 58.2667 492.251 59.5667 491.918 61.5C491.651 63.4333 491.251 65.4667 490.718 67.6C490.185 69.7333 489.518 71.5333 488.718 73C490.518 73.2667 491.851 74 492.718 75.2C493.651 76.3333 494.118 77.6667 494.118 79.2C494.118 79.4667 494.118 79.7333 494.118 80C494.118 80.2667 494.085 80.5333 494.018 80.8C493.951 81.2667 493.751 81.4667 493.418 81.4C493.151 81.4 493.051 81.2 493.118 80.8C493.251 79.0667 493.018 77.5333 492.418 76.2C491.818 74.9333 490.418 74.3 488.218 74.3C487.018 76.6333 485.418 79.2667 483.418 82.2C481.418 85.1333 479.151 88.0667 476.618 91C474.151 94 471.518 96.7333 468.718 99.2C465.985 101.733 463.251 103.733 460.518 105.2C457.718 106.733 455.051 107.5 452.518 107.5ZM451.318 105.6C452.918 105.6 455.085 104.833 457.818 103.3C459.751 102.233 461.818 100.733 464.018 98.8C466.218 96.8667 468.385 94.7 470.518 92.3C472.718 89.9667 474.751 87.6333 476.618 85.3C478.551 82.9667 480.185 80.8 481.518 78.8C482.851 76.8667 483.785 75.3667 484.318 74.3C482.518 74.7 480.285 75.4667 477.618 76.6C474.951 77.7333 472.118 79.1667 469.118 80.9C466.185 82.7 463.318 84.7 460.518 86.9C457.718 89.1 455.251 91.4333 453.118 93.9C451.985 95.3667 450.985 96.9333 450.118 98.6C449.251 100.267 448.818 101.7 448.818 102.9C448.818 104.7 449.651 105.6 451.318 105.6Z" fill="#D7B67E"/>
</svg>
