<svg width="165" height="28" viewBox="0 0 165 28" fill="none" xmlns="http://www.w3.org/2000/svg">
<path d="M47.7953 0L50.8323 9.34695H60.6603L52.7093 15.1237L55.7463 24.4706L47.7953 18.6939L39.8444 24.4706L42.8814 15.1237L34.9304 9.34695H44.7583L47.7953 0Z" fill="#D9AF67"/>
<path d="M13.527 0L16.564 9.34695H26.392L18.441 15.1237L21.478 24.4706L13.527 18.6939L5.57604 24.4706L8.61305 15.1237L0.66206 9.34695H10.49L13.527 0Z" fill="#D9AF67"/>
<path d="M82.0639 0L85.1009 9.34695H94.9289L86.9779 15.1237L90.0149 24.4706L82.0639 18.6939L74.1129 24.4706L77.1499 15.1237L69.1989 9.34695H79.0269L82.0639 0Z" fill="#D9AF67"/>
<path d="M150.601 4.8541L152.211 9.81047L152.548 10.8469H153.638H158.849L154.633 13.9102L153.752 14.5507L154.088 15.5872L155.699 20.5436L151.483 17.4804L150.601 16.8398L149.719 17.4804L145.503 20.5436L147.114 15.5872L147.45 14.5507L146.569 13.9102L142.353 10.8469H147.564H148.654L148.991 9.81047L150.601 4.8541Z" fill="white" stroke="#D9AF67" stroke-width="3"/>
<path d="M116.332 4.8541L117.943 9.81047L118.28 10.8469H119.369H124.581L120.365 13.9102L119.483 14.5507L119.82 15.5872L121.43 20.5436L117.214 17.4804L116.332 16.8398L115.451 17.4804L111.235 20.5436L112.845 15.5872L113.182 14.5507L112.3 13.9102L108.084 10.8469H113.295H114.385L114.722 9.81047L116.332 4.8541Z" fill="white" stroke="#D9AF67" stroke-width="3"/>
</svg>
