<svg width="557" height="61" viewBox="0 0 557 61" fill="none" xmlns="http://www.w3.org/2000/svg">
<rect width="557" height="61" rx="30.5" fill="#011717"/>
<path d="M212.5 40V20.02L218.35 19.99C219.33 19.99 220.24 20.23 221.08 20.71C221.92 21.19 222.58 21.84 223.06 22.66C223.56 23.48 223.81 24.37 223.81 25.33C223.81 26.99 223.02 28.48 221.44 29.8C222.48 30.4 223.26 31.12 223.78 31.96C224.32 32.78 224.59 33.69 224.59 34.69C224.59 35.67 224.34 36.57 223.84 37.39C223.36 38.19 222.7 38.83 221.86 39.31C221.02 39.77 220.1 40 219.1 40H212.5ZM213.88 21.37V29.35H218.35C219.07 29.35 219.74 29.17 220.36 28.81C221 28.45 221.5 27.96 221.86 27.34C222.24 26.72 222.43 26.05 222.43 25.33C222.43 24.63 222.24 23.98 221.86 23.38C221.5 22.76 221 22.27 220.36 21.91C219.74 21.55 219.07 21.37 218.35 21.37H213.88ZM213.88 30.67V38.65H219.1C219.82 38.65 220.49 38.48 221.11 38.14C221.75 37.78 222.26 37.3 222.64 36.7C223.02 36.08 223.21 35.41 223.21 34.69C223.21 33.93 223.02 33.25 222.64 32.65C222.26 32.03 221.75 31.55 221.11 31.21C220.49 30.85 219.82 30.67 219.1 30.67H213.88ZM234.585 40.15C233.565 40.15 232.595 39.95 231.675 39.55C230.755 39.15 229.945 38.6 229.245 37.9C228.545 37.2 227.995 36.39 227.595 35.47C227.195 34.55 226.995 33.58 226.995 32.56C226.995 31.52 227.195 30.53 227.595 29.59C227.995 28.65 228.545 27.83 229.245 27.13C229.945 26.43 230.755 25.89 231.675 25.51C232.595 25.11 233.565 24.91 234.585 24.91C235.625 24.91 236.615 25.11 237.555 25.51C238.495 25.89 239.315 26.43 240.015 27.13C240.715 27.83 241.255 28.65 241.635 29.59C242.035 30.53 242.235 31.52 242.235 32.56C242.235 33.58 242.035 34.55 241.635 35.47C241.255 36.39 240.715 37.2 240.015 37.9C239.315 38.6 238.495 39.15 237.555 39.55C236.615 39.95 235.625 40.15 234.585 40.15ZM234.585 26.26C233.745 26.26 232.945 26.42 232.185 26.74C231.445 27.06 230.785 27.51 230.205 28.09C229.625 28.67 229.165 29.35 228.825 30.13C228.505 30.91 228.345 31.72 228.345 32.56C228.345 33.4 228.505 34.2 228.825 34.96C229.165 35.72 229.625 36.39 230.205 36.97C230.785 37.55 231.445 38.01 232.185 38.35C232.945 38.67 233.745 38.83 234.585 38.83C235.425 38.83 236.235 38.67 237.015 38.35C237.795 38.01 238.465 37.55 239.025 36.97C239.605 36.39 240.055 35.72 240.375 34.96C240.695 34.2 240.855 33.4 240.855 32.56C240.855 31.72 240.685 30.91 240.345 30.13C240.025 29.35 239.585 28.67 239.025 28.09C238.465 27.51 237.795 27.06 237.015 26.74C236.235 26.42 235.425 26.26 234.585 26.26ZM251.636 40.15C250.616 40.15 249.646 39.95 248.726 39.55C247.806 39.15 246.996 38.6 246.296 37.9C245.596 37.2 245.046 36.39 244.646 35.47C244.246 34.55 244.046 33.58 244.046 32.56C244.046 31.52 244.246 30.53 244.646 29.59C245.046 28.65 245.596 27.83 246.296 27.13C246.996 26.43 247.806 25.89 248.726 25.51C249.646 25.11 250.616 24.91 251.636 24.91C252.676 24.91 253.666 25.11 254.606 25.51C255.546 25.89 256.366 26.43 257.066 27.13C257.766 27.83 258.306 28.65 258.686 29.59C259.086 30.53 259.286 31.52 259.286 32.56C259.286 33.58 259.086 34.55 258.686 35.47C258.306 36.39 257.766 37.2 257.066 37.9C256.366 38.6 255.546 39.15 254.606 39.55C253.666 39.95 252.676 40.15 251.636 40.15ZM251.636 26.26C250.796 26.26 249.996 26.42 249.236 26.74C248.496 27.06 247.836 27.51 247.256 28.09C246.676 28.67 246.216 29.35 245.876 30.13C245.556 30.91 245.396 31.72 245.396 32.56C245.396 33.4 245.556 34.2 245.876 34.96C246.216 35.72 246.676 36.39 247.256 36.97C247.836 37.55 248.496 38.01 249.236 38.35C249.996 38.67 250.796 38.83 251.636 38.83C252.476 38.83 253.286 38.67 254.066 38.35C254.846 38.01 255.516 37.55 256.076 36.97C256.656 36.39 257.106 35.72 257.426 34.96C257.746 34.2 257.906 33.4 257.906 32.56C257.906 31.72 257.736 30.91 257.396 30.13C257.076 29.35 256.636 28.67 256.076 28.09C255.516 27.51 254.846 27.06 254.066 26.74C253.286 26.42 252.476 26.26 251.636 26.26ZM269.902 40L263.392 32.71V40H261.982V20.05H263.392V30.31L269.272 25.21H271.402L264.142 31.48L271.762 40H269.902ZM300.569 40L289.349 22.3V40H287.969V20.05H289.619L301.169 38.23V20.05H302.519V40H300.569ZM312.808 40.15C311.788 40.15 310.818 39.95 309.898 39.55C308.978 39.15 308.168 38.6 307.468 37.9C306.768 37.2 306.218 36.39 305.818 35.47C305.418 34.55 305.218 33.58 305.218 32.56C305.218 31.52 305.418 30.53 305.818 29.59C306.218 28.65 306.768 27.83 307.468 27.13C308.168 26.43 308.978 25.89 309.898 25.51C310.818 25.11 311.788 24.91 312.808 24.91C313.848 24.91 314.838 25.11 315.778 25.51C316.718 25.89 317.538 26.43 318.238 27.13C318.938 27.83 319.478 28.65 319.858 29.59C320.258 30.53 320.458 31.52 320.458 32.56C320.458 33.58 320.258 34.55 319.858 35.47C319.478 36.39 318.938 37.2 318.238 37.9C317.538 38.6 316.718 39.15 315.778 39.55C314.838 39.95 313.848 40.15 312.808 40.15ZM312.808 26.26C311.968 26.26 311.168 26.42 310.408 26.74C309.668 27.06 309.008 27.51 308.428 28.09C307.848 28.67 307.388 29.35 307.048 30.13C306.728 30.91 306.568 31.72 306.568 32.56C306.568 33.4 306.728 34.2 307.048 34.96C307.388 35.72 307.848 36.39 308.428 36.97C309.008 37.55 309.668 38.01 310.408 38.35C311.168 38.67 311.968 38.83 312.808 38.83C313.648 38.83 314.458 38.67 315.238 38.35C316.018 38.01 316.688 37.55 317.248 36.97C317.828 36.39 318.278 35.72 318.598 34.96C318.918 34.2 319.078 33.4 319.078 32.56C319.078 31.72 318.908 30.91 318.568 30.13C318.248 29.35 317.808 28.67 317.248 28.09C316.688 27.51 316.018 27.06 315.238 26.74C314.458 26.42 313.648 26.26 312.808 26.26ZM337.853 40H336.143L332.693 31.15L329.243 40H327.533L321.653 25H323.123L328.373 38.47L331.973 29.32L330.293 25H331.733L337.013 38.47L342.233 25H343.673L337.853 40Z" fill="white"/>
</svg>
