<svg width="68" height="13" viewBox="0 0 68 13" fill="none" xmlns="http://www.w3.org/2000/svg">
<path d="M6.70662 0.620667L8.03597 4.712H12.3379L8.85756 7.24059L10.1869 11.3319L6.70662 8.80334L3.22632 11.3319L4.55568 7.24059L1.07538 4.712H5.37726L6.70662 0.620667Z" fill="#D7B67E"/>
<path d="M20.5224 0.620682L21.8517 4.71202H26.1536L22.6733 7.2406L24.0027 11.3319L20.5224 8.80335L17.0421 11.3319L18.3714 7.2406L14.8911 4.71202H19.193L20.5224 0.620682Z" fill="#D7B67E"/>
<path d="M34.3381 0.620682L35.6675 4.71202H39.9694L36.4891 7.2406L37.8184 11.3319L34.3381 8.80335L30.8578 11.3319L32.1872 7.2406L28.7069 4.71202H33.0088L34.3381 0.620682Z" fill="#D7B67E"/>
<path d="M48.1539 0.620682L49.4832 4.71202H53.7851L50.3048 7.2406L51.6342 11.3319L48.1539 8.80335L44.6736 11.3319L46.0029 7.2406L42.5226 4.71202H46.8245L48.1539 0.620682Z" fill="#D7B67E"/>
<path d="M61.9696 0.620682L63.2989 4.71202H67.6008L64.1205 7.2406L65.4499 11.3319L61.9696 8.80335L58.4893 11.3319L59.8186 7.2406L56.3383 4.71202H60.6402L61.9696 0.620682Z" fill="#D9D9D9"/>
</svg>
